<?xml version="1.0" encoding="UTF-8"?>
<svg xmlns="http://www.w3.org/2000/svg" version="1.1" viewBox="0 0 205.4 121.4">
  <defs>
    <style>
      .cls-1 {
      fill: #1e1c18;
      }

      .cls-2 {
      fill: #161510;
      }

      .cls-3 {
      fill: #212625;
      }

      .cls-4 {
      fill: #16171a;
      }

      .cls-5 {
      fill: #cc8a61;
      }

      .cls-6 {
      fill: #111;
      }

      .cls-7 {
      fill: #19191c;
      }

      .cls-8 {
      fill: #191a1d;
      }

      .cls-9 {
      fill: #2b2523;
      }

      .cls-10 {
      fill: #2e2a1f;
      }

      .cls-11 {
      fill: #2e2b20;
      }

      .cls-12 {
      fill: #544a2f;
      }

      .cls-13 {
      fill: #0f0f11;
      }

      .cls-14 {
      fill: #2d1f1d;
      }

      .cls-15 {
      fill: #181312;
      }

      .cls-16 {
      fill: #272a30;
      }

      .cls-17 {
      fill: #3a3b3c;
      }

      .cls-18 {
      fill: #2f3a37;
      }

      .cls-19 {
      fill: #695c39;
      }

      .cls-20 {
      fill: #040405;
      }

      .cls-21 {
      fill: #0b0b0d;
      }

      .cls-22 {
      fill: #252d29;
      }

      .cls-23 {
      fill: #2b2e34;
      }

      .cls-24 {
      fill: #534a36;
      }

      .cls-25 {
      fill: #484230;
      }

      .cls-26 {
      fill: #c32f2f;
      }

      .cls-27 {
      fill: #2e291f;
      }

      .cls-28 {
      fill: #3b322f;
      }

      .cls-29 {
      fill: #423f2c;
      }

      .cls-30 {
      fill: #0f0f12;
      }

      .cls-31 {
      fill: #282b32;
      }

      .cls-32 {
      fill: #2d2625;
      }

      .cls-33 {
      fill: #0e0c0b;
      }

      .cls-34 {
      fill: #363225;
      }

      .cls-35 {
      fill: #15140f;
      }

      .cls-36 {
      fill: #1f2523;
      }

      .cls-37 {
      fill: #322b29;
      }

      .cls-38 {
      fill: #272220;
      }

      .cls-39 {
      fill: #2e3936;
      }

      .cls-40 {
      fill: #2e3836;
      }

      .cls-41 {
      fill: #1a1b20;
      }

      .cls-42 {
      fill: #272f2d;
      }

      .cls-43 {
      fill: #373327;
      }

      .cls-44 {
      fill: #2b2423;
      }

      .cls-45 {
      fill: #2f3239;
      }

      .cls-46 {
      fill: #0a0a07;
      }

      .cls-47 {
      fill: #2c2524;
      }

      .cls-48 {
      fill: #1e1f23;
      }

      .cls-49 {
      fill: #383325;
      }

      .cls-50 {
      fill: #101113;
      }

      .cls-51 {
      fill: #070604;
      }

      .cls-52 {
      fill: #796b46;
      }

      .cls-53 {
      fill: #52492e;
      }

      .cls-54 {
      fill: #393c44;
      }

      .cls-55 {
      fill: #1c1f1e;
      }

      .cls-56 {
      fill: #443b23;
      }

      .cls-57 {
      fill: #685d3b;
      }

      .cls-58 {
      fill: #25201f;
      }

      .cls-59 {
      fill: #1b1913;
      }

      .cls-60 {
      fill: #1d2320;
      }

      .cls-61 {
      fill: #0e0f10;
      }

      .cls-62 {
      fill: #050505;
      }

      .cls-63 {
      fill: #352623;
      }

      .cls-64 {
      fill: #39321f;
      }

      .cls-65 {
      fill: #16181b;
      }

      .cls-66 {
      fill: #2f2c20;
      }

      .cls-67 {
      fill: #796b44;
      }

      .cls-68 {
      fill: #473d25;
      }

      .cls-69 {
      fill: #201917;
      }

      .cls-70 {
      fill: #363326;
      }

      .cls-71 {
      fill: #1f1b1a;
      }

      .cls-72 {
      fill: #333f3c;
      }

      .cls-73 {
      fill: #6e613d;
      }

      .cls-74 {
      fill: #1c1c13;
      }

      .cls-75 {
      fill: #2a3230;
      }

      .cls-76 {
      fill: #201e17;
      }

      .cls-77 {
      fill: #5e5640;
      }

      .cls-78 {
      fill: #1c1a14;
      }

      .cls-79 {
      fill: #3e3622;
      }

      .cls-80 {
      fill: #605536;
      }

      .cls-81 {
      fill: #272930;
      }

      .cls-82 {
      fill: #2e2717;
      }

      .cls-83 {
      fill: #0b0a07;
      }

      .cls-84 {
      fill: #353025;
      }

      .cls-85 {
      fill: #58543b;
      }

      .cls-86 {
      fill: #4e452b;
      }

      .cls-87 {
      fill: #2d2718;
      }

      .cls-88 {
      fill: #383326;
      }

      .cls-89 {
      fill: #c32f2f;
      }

      .cls-90 {
      fill: #262e2b;
      }

      .cls-91 {
      fill: #1b1e1d;
      }

      .cls-92 {
      fill: #c32f2f;
      }

      .cls-93 {
      fill: #4c4632;
      }

      .cls-94 {
      fill: #363636;
      }

      .cls-95 {
      fill: #17181c;
      }

      .cls-96 {
      fill: #5a4f31;
      }

      .cls-97 {
      fill: #231b1a;
      }

      .cls-98 {
      fill: #29312f;
      }

      .cls-99 {
      fill: #362f1e;
      }

      .cls-100 {
      fill: #242b28;
      }

      .cls-101 {
      fill: #222826;
      }

      .cls-102 {
      fill: #81734c;
      }

      .cls-103 {
      fill: #5b5133;
      }

      .cls-104 {
      fill: #2c2b1d;
      }

      .cls-105 {
      fill: #303b38;
      }

      .cls-106 {
      fill: #65403a;
      }

      .cls-107 {
      fill: #222019;
      }

      .cls-108 {
      fill: #211d1c;
      }

      .cls-109 {
      fill: #c32f2f;
      }

      .cls-110 {
      fill: #26292f;
      }

      .cls-111 {
      fill: #24262c;
      }

      .cls-112 {
      fill: #35413d;
      }

      .cls-113 {
      fill: #303b39;
      }

      .cls-114 {
      fill: #db0000;
      }

      .cls-115 {
      fill: #3f2b27;
      }

      .cls-116 {
      fill: #313d39;
      }

      .cls-117 {
      fill: #342e24;
      }

      .cls-118 {
      fill: #303c39;
      }

      .cls-119 {
      fill: #675f44;
      }

      .cls-120 {
      fill: #db0000;
      }

      .cls-121 {
      fill: #222928;
      }

      .cls-122 {
      fill: #181810;
      }

      .cls-123 {
      fill: #554b2e;
      }

      .cls-124 {
      fill: #15140e;
      }

      .cls-125 {
      fill: #372f1d;
      }

      .cls-126 {
      fill: #141111;
      }

      .cls-127 {
      fill: #3c2c29;
      }

      .cls-128 {
      fill: #342b29;
      }

      .cls-129 {
      fill: #342c2a;
      }

      .cls-130 {
      fill: #25231a;
      }

      .cls-131 {
      fill: #38302c;
      }

      .cls-132 {
      fill: #1c211f;
      }

      .cls-133 {
      fill: #0d0e0d;
      }

      .cls-134 {
      fill: #2f2926;
      }

      .cls-135 {
      fill: #5a5031;
      }

      .cls-136 {
      fill: #171a19;
      }

      .cls-137 {
      fill: #4a4127;
      }

      .cls-138 {
      fill: #4c4832;
      }

      .cls-139 {
      fill: #312e21;
      }

      .cls-140 {
      fill: #302a20;
      }

      .cls-141 {
      fill: #5e593e;
      }

      .cls-142 {
      fill: #595959;
      }

      .cls-143 {
      fill: #333e3b;
      }

      .cls-144 {
      fill: #4b3430;
      }

      .cls-145 {
      fill: #2a271e;
      }

      .cls-146 {
      fill: #100e0d;
      }

      .cls-147 {
      fill: #101212;
      }

      .cls-148 {
      fill: #2c3633;
      }

      .cls-149 {
      fill: #101011;
      }

      .cls-150 {
      fill: #353324;
      }

      .cls-151 {
      fill: #85774d;
      }

      .cls-152 {
      fill: #11100b;
      }

      .cls-153 {
      fill: #322a28;
      }

      .cls-154 {
      fill: #2d3734;
      }

      .cls-155 {
      fill: #2b3432;
      }

      .cls-156 {
      fill: #563733;
      }

      .cls-157 {
      fill: #1c201f;
      }

      .cls-158 {
      fill: #37311f;
      }

      .cls-159 {
      fill: #583a35;
      }

      .cls-160 {
      fill: #3c3521;
      }

      .cls-161 {
      fill: #21242a;
      }

      .cls-162 {
      fill: #4b4630;
      }

      .cls-163 {
      fill: #2f2c21;
      }

      .cls-164 {
      fill: #5c3a34;
      }

      .cls-165 {
      fill: #2b3532;
      }

      .cls-166 {
      fill: #232928;
      }

      .cls-167 {
      fill: #1e1a19;
      }

      .cls-168 {
      fill: #141416;
      }

      .cls-169 {
      fill: #35423e;
      }

      .cls-170 {
      fill: #2c3634;
      }

      .cls-171 {
      fill: #313c39;
      }

      .cls-172 {
      fill: #181611;
      }

      .cls-173 {
      fill: #5e5333;
      }

      .cls-174 {
      fill: #252d2b;
      }

      .cls-175 {
      fill: #262120;
      }

      .cls-176 {
      fill: #16171b;
      }

      .cls-177 {
      fill: #3f3b2c;
      }

      .cls-178 {
      fill: #c6865e;
      }

      .cls-179 {
      fill: #312725;
      }

      .cls-180 {
      fill: #2a3432;
      }

      .cls-181 {
      fill: #87784e;
      }

      .cls-182 {
      fill: #1f2422;
      }

      .cls-183 {
      fill: #352d2a;
      }

      .cls-184 {
      fill: #3a312e;
      }

      .cls-185 {
      fill: #282417;
      }

      .cls-186 {
      fill: #2d3634;
      }

      .cls-187 {
      fill: #1a1812;
      }

      .cls-188 {
      fill: #412b28;
      }

      .cls-189 {
      fill: #242b29;
      }

      .cls-190 {
      fill: #4f4b34;
      }

      .cls-191 {
      fill: #1c1918;
      }

      .cls-192 {
      fill: #433c2a;
      }

      .cls-193 {
      fill: #645d3f;
      }

      .cls-194 {
      fill: #887a4e;
      }

      .cls-195 {
      fill: #35403d;
      }

      .cls-196 {
      fill: #100e0e;
      }

      .cls-197 {
      fill: #3b3927;
      }

      .cls-198 {
      fill: #2e2725;
      }

      .cls-199 {
      fill: #28302e;
      }

      .cls-200 {
      fill: #2e3835;
      }

      .cls-201 {
      fill: #373325;
      }

      .cls-202 {
      fill: #352f1d;
      }

      .cls-203 {
      fill: #161817;
      }

      .cls-204 {
      fill: #322b28;
      }

      .cls-205 {
      fill: #0d0d10;
      }

      .cls-206 {
      fill: #423f2d;
      }

      .cls-207 {
      fill: #db0000;
      }

      .cls-208 {
      fill: #353023;
      }

      .cls-209 {
      fill: #403b28;
      }

      .cls-210 {
      fill: #625838;
      }

      .cls-211 {
      fill: #3d3520;
      }

      .cls-212 {
      fill: #0c0d0f;
      }

      .cls-213 {
      fill: #343740;
      }

      .cls-214 {
      fill: #4d4329;
      }

      .cls-215 {
      fill: #110f0f;
      }

      .cls-216 {
      fill: #17181a;
      }

      .cls-217 {
      fill: #1b1912;
      }

      .cls-218 {
      fill: #fdfdfd;
      }

      .cls-219 {
      fill: #2a2c32;
      }

      .cls-220 {
      fill: #332e24;
      }

      .cls-221 {
      fill: #2a2517;
      }

      .cls-222 {
      fill: #141616;
      }

      .cls-223 {
      fill: #454030;
      }

      .cls-224 {
      fill: #040403;
      }

      .cls-225 {
      fill: #1d1b13;
      }

      .cls-226 {
      fill: #272418;
      }

      .cls-227 {
      fill: #452d29;
      }
    </style>
  </defs>
  <!-- Generator: Adobe Illustrator 28.7.3, SVG Export Plug-In . SVG Version: 1.2.0 Build 164)  -->
  <g>
    <g id="Calque_1">
      <path class="cls-24"
        d="M29.5,72.9c-1.4-2.7-1-5.1,1.5-7,.3-.3.7-.4,1,0,.9.9,1.2,2,1.4,3.2,0,1,0,1.9-.4,2.8-.8.9-1.3.4-1.7-.4-.3-.4.3-.5-.2-.3,0,0,0,.1,0,.4,0,.2.1.3.1.4,0,.5,0,1-.5,1.3-.6.2-1,.2-1.5-.3Z" />
      <path class="cls-25"
        d="M29.5,72.9c.5,0,1,0,1.5,0,.2.2.3.3.3.5,0,.2-.2.3-.2.3-.2,2.3.2,4.1,3.1,3.9.4.6.4,1.1,0,1.7-1,.7-2.1,1.4-3.4.4-.3-2.3-2-4.4-1.4-6.9Z" />
      <path class="cls-130"
        d="M34.9,63.5c0,.5,0,1,0,1.6-.3,0-.5,0-.8,0-.6.5-1.1.4-1.6,0,.3-.5.6-1,.9-1.5.5-.4,1-.4,1.5,0Z" />
      <path class="cls-208"
        d="M34.9,63.5c-.5,0-1,0-1.5,0,0-1,0-2.1-.1-3.1,0,0,.1,0,.1,0,1.7,0,1.4,1.3,1.5,2.3,0,.3,0,.5,0,.8Z" />
      <path class="cls-208"
        d="M32.5,65c.5,0,1.1,0,1.6,0,0,.5,0,1,0,1.5-.1,0-.2.2-.4.3-.3,0-.6,0-.9-.1-.4-.2-.7-.5-1.1-.9-.3,0-.6,0-.8,0,.3-.6.9-.8,1.5-.8Z" />
      <path class="cls-19"
        d="M34.1,66.7c0,2.3,0,4.6,0,7-.3-.2-.5-.5-.8-.7-.2-.3-.7-.3-.7-.8,0-1,0-2.1,0-3.1.8-.6,0-1.8.8-2.4.2,0,.5,0,.7.1Z" />
      <path class="cls-208"
        d="M32.6,72.1c.2.3.5.5.7.8-.8.3-1.5.5-2.3.8,0-.3,0-.5,0-.8,0-.5,0-1,0-1.5-.2-.2-.3-.3-.2-.5,0-.2.1-.2.2-.2.5.5,1,1,1.5,1.5Z" />
      <path class="cls-67" d="M33.4,66.5c-.1.9.1,1.8-.8,2.4-.2-1-.5-2-.7-3,.6,0,1.2,0,1.6.6Z" />
      <path class="cls-119"
        d="M31,70.6c0,.3,0,.5,0,.8-.7,0-1.3-.2-1.4-1,0-.3.3-.6.4-.8.3.3.7.7,1,1Z" />
      <g>
        <path
          d="M198.6,87.7c-2.7,0-6.2.6-7.9-.8-2.1-1.7-3.8-1.7-6-1.6-2.9,0-5.7.1-8.6.1-1.7,0-3.1,0-4.5,1.5-2,2.1-10.8,1.2-12.2-1.3-1.4-2.5-3.6-3.6-5.9-4.7-1.5-.7-2.1-1.7-2.6-3-1.3-3.5-2.6-7.1-4.2-10.4-3.2-6.4-4.9-13.7-10.9-18.6-1.1-1.3-2.6-2.2-4.1-3.1-5-8.1-13.4-10.7-21.7-13.5-3.5-1.1-7.3.5-10.7-1.2-4.3-2.2-8.8-2.9-13.6-2.5-1.9.2-3.8.2-6-.3,1.3-1.7,2.4-3.1,3.3-4.7.7-1.2,1.7-2.6-.4-3.5-1.3-.5-1.5-2.1-2.4-2.9-1.5-1.9-3.2-3.7-4.8-5.4-2.4-2.6-5.4-5.1-9.5-2.9-.6.3-1.5.8-1.8.2-1.7-3.9-5.8-2.7-8.6-4.1-3.8-2-7.5-1.8-11.3-.5-10.2,3.5-19.6,8.8-28.3,15-3.6,2.6-6.6,5.8-6.7,10.8,0,1.1-1,2.1-1.2,3.2-.7,3.8-.5,7.9-4.1,10.6-.3.3,0,1.2-.1,1.9-.3,5.8,1.6,11.1,3.8,16.3,2.4.9,5-.2,7.8.7-1.2,1.7-1.9,3.4-3.1,4.6-5.7,5.1-6.2,12.2-7.6,19-1,4.7-1,9.1,2,12.9,3.4,4.3,4.9,9.9,9.9,13.1,8.1,5.2,17.3,6.8,26.5,7.2,15.7.8,30.6-3.4,44.6-10.3,4.3-2.1,8.2-5.2,13.4-3.4,1,.3,1.9-.5,2.9-1,3.8-2,7.4-4.8,11.4-5.7,6-1.4,12.3-1.3,18.5-.9,2,.1,4,.8,5.2,3.3,1,2,3,3.6,5.7,3.4,5.3.6,10.6.8,13.7-4.8,3.1-2.7,11-4.5,13.3-2.7,5.4,4,11.4,1,17.1,1.6,2.4-3.8,6.4-2.3,9.7-2.7,2.8-.3,5-.7,5.2-4.2.2-3.9-2-4.5-5.1-4.6ZM99.8,83.2c0-.2,0-.5,0-.7,1.2-2.2,2.3-4.3,3.5-6.5.7-1.3.9-2.4-.2-3.5-1-1.1-2.8-2.3-1.4-3.9,1.4-1.7,2.8-3.8,5.5-4,.5,0,1.1.3,1.5.2,9.4-2.4,12.3,4.9,15.7,10.8,2.1,3.7,3.9,7.5,6.4,11.6-5.4.7-10.3.5-15.4-.5-5.2-1-10.1-3.7-15.5-3.4Z" />
        <path class="cls-146" d="M144.7,105.2c5.2.2,10.1-.3,13.7-4.8-1.8,4.9-7.3,6.9-13.7,4.8Z" />
        <path class="cls-6"
          d="M7.6,62.3c2.9-.3,5.8.3,9.1-.7-1.4,2.5-2.2,4.8-4.5,6.1.7-1.3,1.3-2.7,2.1-4.2-2.1-1.3-4.8.7-6.7-1.2Z" />
        <path class="cls-94" d="M135.9,48.9c-1.6-.7-3.2-1.4-4.1-3.1,2.1,0,3.2,1.4,4.1,3.1Z" />
        <path class="cls-1" d="M82.7,20.1c-1.9,0-2.1-1.5-2.4-2.9,1.3.6,1.8,1.8,2.4,2.9Z" />
        <path class="cls-218" d="M99.8,83.2c-.2-.2-.3-.3-.2-.5,0-.2.1-.3.2-.3,0,.2,0,.5,0,.7Z" />
        <path class="cls-92"
          d="M30.3,87.2c.5.9.5,1.5-.8,1.5-4.7,3.3-9.9,5.9-13.3,10.9-.9,1.4-2.6,3-4.2.4-.9-2.6-3-4.6-3.4-7.3-.8-5.8,1.2-10.9,4.9-15.4,1.6-2,3.7-2.1,6-1,2.8,1.4,4.6,3.6,5.9,6.4.8,1.8,1.7,3.5,4,3.7.4.2.7.5,1,.7Z" />
        <path class="cls-7"
          d="M188,89.5c2.7,1.7,5.8.3,8.6.8,1.6.3,4.5-1.4,4.5,1.8,0,2.9-2.7,1.9-4.5,2.1-.2,0-.4,0-.6,0-3.5.4-7-1-10.5.1-11.3,0-22.6-.3-33.8.2-1.8,0-3.7-.2-5.3.9-1.6.7-3.2.6-4.8.5-.9-.2-1.8-.4-2-1.5,1.1-1.5,1.2-3.6,3-4.8,5.5-1,11.1-.2,16.6-.1,5.4,1.1,10.9.8,16.4.8,4.1-1,8.2-3.2,12.5-.8Z" />
        <path class="cls-224"
          d="M24.1,60.7c-3.1-1.9-1.7-5.5-3-8.5-1.7,1.9-.3,3.4-.2,4.9,0,1.4.7,3.8-2.2,2,.2-4.4-.8-8.6-1.7-12.8-.1-3.5-.3-7.1-.6-10.6.9,0,1.9,0,3.2.1-.9-1.3-1.7-2.3-2.4-3.3.4-.4.9-.5,1.5-.4,1.9,1.2,3.9,2.1,6.3,1.6,1.5.3,3,.8,4.4,1.3,1.1.4,2.1.6,3.2.1.6-.3,1.2-.6,1.9-.8.4-.1.7-.2,1.1-.2,1.9.2,2.6,1,1.3,2.7-.8,1-2,1.5-2.6,2.7-.8,2.6.7,5.2.3,7.8.2,1.6-.5,3.1-.3,4.6-1.3,1.3-2.7,2.6-4,3.9-1.6-2.8-.8-5.9-1.7-8.8,0-1,0-2.1,0-3.1-.1-1.8-1.1-2.5-2.8-2.5-1.7,0-2.6.9-2.8,2.6-.3,3.4.7,6.7,1.1,10,.1.4.2.8.3,1.2,0,1.8,1.4,3.6-.2,5.4Z" />
        <path class="cls-120"
          d="M76.4,99.6c.8,0,1.5,0,2.3,0,2.4.1,3.2,1.8,3.8,3.8,0,1.9-.8,3-2.6,3.2-2.9.2-5.9,2.4-8.6-.3-.6,1.2.2,1.9-.1,2.7-2.2,2.4-5.1,2.9-8,3.2-3.4.4-5.3-1.5-7-6-.4-5.1-.2-5.3,4.6-5.9,2.7-.3,5.4-.4,8.1-.9,2.5,0,5.1-.5,7.6.3Z" />
        <path class="cls-216"
          d="M31.2,97.2c-1.8-4.5-.6-6.1,4.6-6.2,2.2,1.3,4.5.8,6.8.7,9.4-.5,18.8-1,28.2-.6,2.2,3,5,3.4,8.3,2.1.8-.3,1.7-.5,2.4.4.3,1.3.7,2.8-1.4,2.9-15-.3-30.1,0-45.1-.1-1.3,0-2.6.1-3.8.7Z" />
        <path class="cls-224"
          d="M67,23.3c-1.3.3-2-1.6-3.7-1,1,1.2,1.9,2.3,2.9,3.4-2.2,1-3.4-1-4.9-1.8q-4-3.4-7.6,1.8c-.6.8-1.1,1.7-1.6,2.5-.5.7-1.1,1.2-1.8,1.7-.4.3-.8.7-1.1,1-.5.4-1.1.8-1.8,1.1-2.6,1.2-4.7,3.4-7.7,3.7-1.3,0-2.1-.6-2.6-1.8,0-.6.2-1.1.6-1.5.9-1.1,2.2-1.8,3.2-2.7,1.4-1.5,3.3-2.4,5.2-3.1.4-.3.9-.5,1.4-.6,3.3-1,2.5-4.1,3.2-6.4,1.4-1.9.8-4.5,2.3-6.3.9.3.8,1.7,2,1.7.7-1.3.2-2.7.3-4,1.6-.2,1.5,1.2,1.7,2,.4,2.4,1.8,3.9,4,4.8,1.9,1,3.8,2.1,5.5,3.6.5.6.9,1.2.5,2Z" />
        <path class="cls-26"
          d="M120.1,40.4c7.6,2,11.5,8.1,15.7,14-.2,0-.3.1-.5.2-.8,0-1.5-.5-2-1-2.1-2.5-4.5-2.4-7.1-.8-.5.3-.9.5-1.4.7-1.8,1.2-4.7,1.5-3.6,4.9.1.3.3.6.4,1,.4,1.3.9,2.5,1.5,3.7.9,1.9,1.9,3.7,3.1,5.4.5,1.3,2,2.3,1,4-4.2-2.6-5-7.2-7-11.1-1.2-2.4-1.6-5.1-4-6.8-.5-1.8.7-2.8,1.8-3.8,3.9-3,4-3.3,2-8-.3-.7-.7-1.4,0-2.1Z" />
        <path class="cls-26"
          d="M56.9,115.2c-3.5-.2-6.4,2.3-10.1,1.6-4.4-.9-9-.5-13.4-1.6-.3-.4-.2-.8.2-1.1,2.2-.9,4.4.3,6.6,0,4.9,0,6-1,7-6.1.3-2.3-.7-4.8,1.1-6.9,3.7,0,7.1-2.3,10.9-1.5.2.6,0,.9-.6,1.1-4.8,1.5-4.8,1.6-4.5,6.6.1.3.2.7.3,1,0,2.5,2.4,3.8,2.9,6,0,.4-.2.7-.4.9Z" />
        <path class="cls-186"
          d="M29.5,87.1c-2.4.4-3.8-.4-4.6-2.8-.8-2.4-2-4.8-4.3-6.3-3.7-2.4-6.1-1.8-8.1,2.1-3.1,5.8-5.3,11.6-.4,17.6.5.6.2,1.7.3,2.6.2.2.3.4.2.6,0,.2-.2.3-.3.3-7.8-8.1-4.4-16.6-.7-25,2.5-5.4,4.9-5.9,11.1-2.1,2.7,3.3,4,7.5,6.5,10.9.3.7.7,1.3.3,2.1Z" />
        <path class="cls-37"
          d="M89.6,61.5c2.4,4.4,2.4,8.8,0,13.2-1.7.3-3.5-.4-5.2.9-1.3.9-2.9.6-3.8-1.1,0-3.6,1.6-7.1.8-10.8.7-1.9,2.8-1.1,4-1.9.3,0,.7-.1,1,0,1.1.3,2.1-.7,3.3-.2Z" />
        <path class="cls-207"
          d="M138.8,59.1c2.8,6.4,5.7,12.9,8.4,19.3.7,1.7,0,3.1-2.2,3.2-2.1-3.7-4.4-.5-6.6-.2-.9.5-2.2.4-2.4,1.8.1.3.2.5.3.8.1.3.2.5.2.8-1.4,1.2-2.7,1.1-3.4-.6-1.3-3.2-3.3-6-3.7-9.5.3-.2.6-.3,1-.2,1.1.5,1.5,1.6,2,2.6.6,1.2,1.4,1.2,2.4.6,2-1.3,4.3-1.7,6.5-2.4,1.5-.6,1.2-1.7.9-2.8-.3-1.3-1-2.5-1.8-3.6-1.3-1.6-1.6-3.6-2-5.5-.1-.4-.2-.7-.3-1.1-.1-1.2-.2-2.3.8-3.2Z" />
        <path class="cls-200"
          d="M12.4,101.2c0-.3,0-.6,0-.9,2.8,1,3.5-1.6,4.6-3,3.2-4.4,7.5-7,12.6-8.7-.8,1.6-1.6,3.1-2.3,4.7-1.6,3.8-4.6,6.5-7.6,9.1-2.2.6-2.6,4.2-5.6,3.4-2.1-1-1.5-2.9-1.6-4.6Z" />
        <path class="cls-108"
          d="M81.1,74.7c3.1,1.4,4.6-.6,5.9-2.8,1.7.3.6,2.9,2.6,2.7-3.1,5.4-8.8,5.8-14,7.1-.8.6-1.7.3-2.6.3-1.2,0-2-.8-1-1.6,5.4-4.6,4.2-11.3,5.6-17.2,2-.7,1.9.9,2.1,2,.3,1.9.1,3.8,0,5.7,0,1.4-.3,2.9,1.4,3.7Z" />
        <path class="cls-186"
          d="M95.1,34.2c1.5,0,1.8,1.3,2.4,2.3,1.2.6,2.7,1.1,1.9,2.9-1.9,1.3-3-.9-4.5-1-1.6-.2-3.2-.4-4.1,1.3-.9,1.6,0,3,.9,4.3,1.4,2,2.7,4.1,3.5,6.4.3,1.1,1,2.2,0,3.2-1.5.2-2.2-.8-2.7-1.8-2.2-4.3-5.6-7.7-7.9-11.9-1-1.8-1.5-3.6-.3-5.5,1.9-1.9,4.3-2.2,6.7-1.3,1.5.5,3,.3,4.4,1Z" />
        <path class="cls-126"
          d="M77.9,63c-.2,2.9.1,5.9-.4,8.9-.7,3.8-1.9,7.1-5.5,9.2,1.3,1,2.5.4,3.5.6-.9,1.1-2.2,1-3.2.7-2.5-.7-4.7,0-7,.8-1-3.4.9-4.4,3.8-4.7,1.3-.9,2.1-2.2,2.9-3.5.3-.5.6-.9.8-1.4,1.8-3.2.1-6.9,1.3-10.1.8-.7,1.4-1.3.9-2.6-.4-1.1-.5-2.3.2-3.3.3-.2.7-.3,1-.3,1.8,1,1.6,2.9,1.9,4.6,0,.4-.1.8-.4,1.1Z" />
        <path class="cls-225"
          d="M38.9,10.8c2.7-1.1,5.5-2.2,8.2-3.4,1.5-.7,2.7-.6,3.6,1-.1.1-.2.3-.4.4-.5.3-1,.4-1.5.5-1.3.6-3.4-.1-3.8,2.1,1.4,3-.9,4.4-2.6,6.1-.6.6-.9,1.3-.8,2.2.2,1.3.6,2.5.6,3.8,0,1.8-.9,3.1-2.4,4.1-2.8.7-5.8,2.2-7.6-1.6-.1-.6,0-1.2.2-1.7.7-.8,1.3,0,2,.2,2.3.9,2.7-.3,2.4-2.3-.5-1.1-1.2-2.1-1.6-3.2-.3-.7-.5-1.3-.3-2.1.6-1.2,1.4-2,2.7-2.5.9,0,1.7,1.3,2.6,0,.4-.5.4-1,0-1.6-.4-.5-.9-.8-1.3-1.3-.1-.3,0-.6.2-.8Z" />
        <path class="cls-167"
          d="M70.1,79.3c-2.3.4-4.6.8-4.7,3.9-2.6,1-5.2,2.1-7.8,3.1-1.2,0-2.4.1-3.7-.2-2.4-.8-5.1.4-7.3-1.4-1.9-2-5-1.3-7.1-3.1.8-1.1,2.6-1,3.2-2.5.6-.8,1.3-1.3,2.4-1.1.8.2,1.2.8,1.5,1.5.2,1.7,1.4,2.1,2.8,2.3,2.4.5,4.8.5,7.1,0,1.2-.3,2.6-.3,3.8-.7,1.6-.5,4-.3,2.6-3.2-.5-1-.9-2.1-.7-3.3.1-.8.4-1.5,1.2-1.8.4,0,.7,0,1.1,0,.5,3.2,3.1,4.8,5.5,6.5Z" />
        <path class="cls-114"
          d="M99,39.6c.4-1.5-.8-2.2-1.5-3.2,1.8.2,3.6,1,5.4,0,.5,2-1.4,3.9-.1,5.9.7.6,1.4.4,2.2,0,1.1-.6,1-1.6.8-2.6-.1-.3-.3-.6-.4-.9-.3-.8-1.4-1.4-.8-2.6,4.3,0,8.7-.2,12.5,2.3-5.3.6-3.2,4.9-3.9,7.8-.2.8-.5,1.6-1.4,1.8-.4-.2-.7-.5-.8-.8-.6-1.5-.3-3.1-.8-4.6-.3-.8-.2-1.8-.9-2.9-1.1,1.6-.3,3.4-1.2,4.8-.5.8-1.4,1-2.1,1.4-.4.3-.8.5-1.2.8-.8.6-1.1,1.5-1.4,2.4-.4.8-.4,1.9-1.8,1.9-1.4-3.8-3.4-7.5-2.5-11.8Z" />
        <path class="cls-15"
          d="M56.7,48.3c3.5,2.7,8.3,2.7,11.9,5.3.2.2.3.4.3.6,0,.2,0,.3-.1.3-1.1.7-2.3.2-3.4.3-.9-.1-1.7-.2-2.6-.4-1.1-.2-2.1-.6-3.2-.9-4.7-.9-9.2-.3-13.5,1.5-.7.3-1.4.6-2.2.3-1.1-.3-2.3-.7-3.2-1.5-.3-.3-.3-.7,0-1.1,2.8-.8,6.2-.5,7.7-3.9,2.8-.6,5.7.4,8.5-.7Z" />
        <path class="cls-107"
          d="M58.5,40.4c-6.1,2.9-11.7,7-18.6,7.8,0-.2-.2-.3-.3-.5,1.9-2.7,6-2.5,7.6-5.6.3-.3.6-.5.9-.7,3.9-2.1,7.2-4.6,6.3-9.7,3.3-.4,4.1,2.6,5.8,4.3.1,1.7-1.8,2.7-1.7,4.4Z" />
        <path class="cls-4"
          d="M88.9,97.2h-6.2c-.7-.9-.4-1.8.4-2.3,1.9-1.1,3.5-2.2,4.3-4.5.4-1.3,2-.5,3.1-.3,5.9.2,11.7,0,17.5,0,1.4,0,2.9-.3,4.2.5,1.1,2.1-.4,2.4-1.8,2.8-1.5.4-3.1.2-4.6.2-4.5.2-9.2-.8-13.4,1.9-.8.5-2,.3-3,.2-2.6-.4.5,1.1-.4,1.3Z" />
        <path class="cls-72"
          d="M118.5,51.3c-1.4.6-1.7,2-2.4,3.1-.2,0-.5,0-.7,0-1,.8.1,2.3-1.4,3.2-2.5-3.4-2.3-7-1.4-10.8,0-2.7,0-5.3,0-8.2,6.3,4.1,8.4,7.6,5.8,12.6Z" />
        <path class="cls-149"
          d="M89.6,90.3c-.1,0-.4,0-.4,0-1.4,3.1-4.5,4.6-6.6,7-1.3,0-2.6,0-3.9,0-.2-.3-.2-.6,0-1,.5-.2,1.1-.2,1.5.2,1.2-.8.7-2,.8-3.1-.8-1-.8-2.1,0-3.1.3.3.7.8.9.7,8.3-3.1,16.9-.9,25.4-1.5,4-.3,8,0,12,0,.3.5.2.9-.3,1.2-1.1.6-2.3.6-3.5.6-7.2-1.3-14.4-.4-21.6-.7-1.4,0-2.8.3-4.2-.4Z" />
        <path class="cls-110"
          d="M145.8,94.9c1-2,2.8-1.5,4.4-1.5,12,0,24.1,0,36.1,0,1-.4,2-.9,2.5.7-.7.5-1.4,1-2.1,1.5-2,.5-4,.1-6,.3-2.1.1-4.2.4-6-.9-3.7,0-7.3,0-11,0-2-.8-3.7.2-5.5.7-4.1,0-8.3,1.3-12.3-.7Z" />
        <path class="cls-172"
          d="M32.7,25.6c1.6,3.8,4.7.9,7,1.6,1,.8,1.4,1.9,1.6,3.1l-3.1,2.3c-1.7-2.4-3.9.3-5.7-.6-2-1.4-2-3.7-2.6-5.7-.2-.4-.5-.9-.7-1.3-.5-.8-1.3-1.5-1.7-2.4-.3-.7-.6-1.5-.8-2.2-.2-.9-.8-1.7-.9-2.7.6-.9,1.5-.8,2.3-.8,1,.7,2.1,1.2,3,1.9.9.8,1.4,1.7,1.6,2.8.5,1.3-1,2.5,0,3.8Z" />
        <path class="cls-165"
          d="M118.5,51.3c-.2-2.3.6-4.7-.4-6.8-.9-2-4.4-1.9-4.3-5.1-1.2,2.5-.5,4.9-.8,7.3-.3.3-.5.3-.8,0,0-1.1,0-2.3,0-3.4q0-5,4.7-4.4c1,.5,2,1.1,3.1,1.6.2.5.2,1,.5,1.4,3.1,4.5,2.7,6.2-2,9.4Z" />
        <path class="cls-168"
          d="M81.1,90.3c0,1,0,2.1,0,3.1-2.3,2-5,1.5-7.7,1.6-2.7,0-2.7-1.2-1.7-3.1-4.5-.9-9-.1-13.5-.4-1.5,0-3,.4-4.5-.4,1.2-1.2,2.7-.7,4-.7,7.8,0,15.5,0,23.3,0Z" />
        <path class="cls-215"
          d="M35,78.6c-8.2-6.6-8.5-14.9-.8-21,1,1.2.2,2.5,0,3.7-.2.7-.5,1.4-.7,2-.4.9-.7,1.9-.7,3-1,3.3.4,6,1.9,8.8.3.6.6,1.3.8,2,0,.6,0,1.1-.5,1.5Z" />
        <path class="cls-12"
          d="M23.3,55.2c0-.2,0-.5-.1-.7-.2-3.6-.5-7.2,1.8-10.3.7-1,1.3-2.6,2.8-2.2,1.9.5,1.3,2.2,1.3,3.6-3.2,3.7-.8,7.5-.2,11.3-1.5,1.8-1.3,4.2-2.5,6.1-2.2-2.1-.6-5.8-3.1-7.8Z" />
        <path class="cls-31"
          d="M80.3,96.5c-.5,0-1,0-1.5,0-9.1.8-18.3.1-27.4.4-1.8,0-3.6-.4-5.4.3-4.9,0-9.9,0-14.8,0,1-1.2,2.3-1.5,3.8-1.5,14.4,0,28.8,0,43.2,0,.8,0,1.6,0,2.1.8Z" />
        <path class="cls-11"
          d="M17.8,59c-1.3.4-2.6.5-3.9,0,0-.1-.2-.2-.3-.4,0-.3.2-.6.5-.8.3-.3.6-.7.5-1.2-.4-1.1-1.3-1.1-2.2-.9-.4,0-.7,0-1.1,0-2.5-.6-3-2.2-2.5-4.5.5-.9,1.3-1.4,2.4-1.5.6,0,1.1.2,1.6.4.8.2,1.3.1.9-.8-.6-1.7-1-3.4-1.7-5-.2-.6-.1-1.1,0-1.6.3-.3.6-.4,1-.4.2,0,.4.1.5.2,1.2.7,2.1,1.7,2.9,2.8.2.3.4.7.5,1.1.7,4.1.2,8.4.8,12.5Z" />
        <path class="cls-55"
          d="M102.1,51.3c0-.9-.1-1.8.8-2.3.3.2.5.5.7.8.5,1.5.8,3,1.4,4.4.3.8.5,1.6.9,2.3.4.7.9,1.3,1.9.8.8-.4,1-1.6,2.1-1.6,1,.3,1.9-.3,2.8,0,1.3,1.1.8,3,1.9,4.2-2.1,1.8-4.6.8-6.9.6-1.9-.1-3.7,0-5.6.2-.3.3-.6.3-.9,0-.2-.6.1-1.1.4-1.5,1.1-1.2,0-2.4-.2-3.6-.2-1.5-.6-3,.6-4.3Z" />
        <path class="cls-83"
          d="M60,36.5c-2.1-1.2-3.2-3.7-5.4-4.7-1.2.4-1.4-.6-1.9-1.2-.5-.8-.5-1.9-1.2-2.6.5-.8,1-1.6,1.6-2.3,1.1.6,1.5,1.8,2.4,2.5.6.5,1.3,1,2,1.5,1,.7,2,1.3,2.9,1.9,1.4,1.1,2.6,2.3,3.7,3.7.2.3.4.6.5.9.2.7.5,1.3.1,2-2.4-.6-3.3,2.3-5.5,2.3-.6-1.5.9-2.5.8-3.9Z" />
        <path class="cls-91"
          d="M22.5,74.7c-7.2-3-7.3-3-10.9,1.5.1-2.7,1.5-4.9,3.1-7,.3-.4.6-.9.9-1.2,2.6-2.8,3-2.8,4.8.6.4.8.9,1.6,1.4,2.3.2.3.4.6.6.9.4,1,1,2,0,3Z" />
        <path class="cls-96"
          d="M18.5,32.7c-.5,0-1,0-1.5-.1-.3-.2-.5-.5-.8-.7-.3-.3-.5-.6-.8-1-1.2-4.1-.4-5.3,3.8-5.9,2.3.7,3.2,2.7,4.1,4.7.4,1.3,1.1,2.9-.3,3.9-1.7,1.2-3.1-.4-4.6-.8Z" />
        <path class="cls-122"
          d="M16.3,35.7c2.4,1.8,1.4,4.4,1.5,6.7.1,1.4,0,2.8,0,4.2-.9.5-1.1-.3-1.6-.8h0c-.8-1.3-1.8-2.3-3.1-3.1h0c-.4-.4-.6-.9-.6-1.5,0-.4.1-.7.2-1,.2-.8,1.1-1.5.5-2.4-.4-.6-.9-.2-1.3.1-.1,0-.3.1-.4.2-1.5-1.8,0-3.6,0-5.4,1.9-.3,2.4,1.8,3.9,2.3.3.3.5.5.8.8Z" />
        <path class="cls-20"
          d="M119.3,90.3c0-.3,0-.5,0-.8,6-.4,12.1,1.2,18-1.3,1.1-.5,2.5-.2,3.8-.3,1.3,1.1,3,.7,4.5.8,4.5.1,9-.4,13.5.8,0,0,0,0,0,0-3.7,1.7-7.6.4-11.4.8-1.9.2-3.9,0-5.8,0-.5.4-1,.8-1.7.9-1.5.2-3,.1-4.4.2-.8,0-1.6,0-2.5,0-2.6,0-5.1,0-7.7,0-1.6,0-3.1.1-3.9,1.9-.2.3-.5.6-.8.9-1.8.4-1.7-1.2-2.2-2.2,0-.6,0-1.2.5-1.6Z" />
        <path class="cls-71"
          d="M76.4,57.5c-.3,0-.5,0-.8,0-1.6-.8-2.5-2-1.6-3.9,5.2.6,10.4,1,14.1,5.4-.2,1.2.6,2.9-1.6,3.1-.3,0-.5,0-.8,0-.7-.5-1.2-1.2-1.6-1.9-.7-1.4-1.9-1-3.1-.7-.4,0-.7-.1-1-.3-1.2-.5-1.4-3.3-3.7-1.7Z" />
        <path class="cls-35"
          d="M60.8,18.6c-4.4-.8-4.2-4.8-5.5-7.8-.2-2.1.2-3.3,2.6-1.9,1.2.7,2.8.6,3.6,1.9,0,2.3,1.4,4.6,0,6.9-.2.3-.4.6-.7.8Z" />
        <path class="cls-60"
          d="M81.8,103.5c-.7-1.5-1.4-3.1-3.1-3.9,1.6-1.2,3.2.5,4.8.1,1.2,1.1,2.1,3.2,3.9.6,2,2.7,1.8,4.8-1.7,6-1.8.6-3.3,2-5.3,1.9-.5.4-1,.4-1.5.2-.6-1.6.8-1.6,1.6-2,1.2-.6,2.5-1.1,1.5-2.9Z" />
        <path class="cls-207"
          d="M19.4,101.9c2.6-2.9,5.2-5.7,7.8-8.6,0,1,0,2.1,0,3.1-.5,1.6-2.5,3-.6,4.9.2.3.4.6.6.9.5.9,1.2,1.7,1.3,2.8,0,.4,0,.7-.2,1-.5.8-1.1,1.4-2.1,1.6-.8-.2-1.1-.9-1.4-1.6-.8-2-1.8-3.5-4.1-1.6-.3.2-.6.3-1,.3-.3,0-.7,0-1-.3-.8-1.1.4-1.7.7-2.6Z" />
        <path class="cls-90"
          d="M53.7,108.2c-2-5.5-1.3-6.8,4.2-7.9.5,0,.9-.5,1.3-.7,1.6,0,3.1,0,4.7,0,1.6-.5,3.2-.6,4.8,0-1.8,1.4-3.9.5-5.9.7-5.8.6-5.9.5-5.8,6.2q0,2.2-3.1,1.6Z" />
        <path class="cls-76"
          d="M43.6,11.6c-1.5-1.9.7-1.8,1.4-2.1,1.3-.6,2.7-.7,4.1-1,.5.7,1,.5,1.5,0,0,0,0,0,0,0,.8,1.6,1.5,3.1,2.3,4.7.1,2.5.2,4.9-1.6,7-.8.6-1.4.3-1.8-.4.7-6,.4-6.4-6-8.1Z" />
        <path class="cls-73"
          d="M77.2,41.2c2.9,2.6,3.9,6.3,6.6,10-2.4-1-4.3-.2-5.9-1.4.3-.6,1-.8,1.2-1.8-1.8-.2-3.4.5-5,1.1-.3-.3-.5-.6-.8-.8.1-3,0-6.3,4-7.1Z" />
        <path class="cls-95"
          d="M53.7,91h19.5c-.2.3-.2.6-.4.7-.4.1-.8,0-1.1.1-7.8,0-15.6,0-23.4,0-3,0-5.9.5-8.9.7-1.4.1-2.9,0-3.6-1.5,6,0,11.9,0,17.9,0Z" />
        <path class="cls-147"
          d="M88.9,50.5c-3.5-4.3-6.5-8.8-8.9-13.8-2.2-4.5-1.9-4.8,3.4-4.9-1.5,2-2.2,4-.2,6.1,1.9,2.9,4,5.7,5.7,8.7.3,1.3,1.1,2.6,0,3.9Z" />
        <path class="cls-151"
          d="M28.9,56.9c-2.9-2.8-2.6-6.4-2.3-10,0-1.2,1.3-1,2.2-1,.5,0,.6.5.8.8.8,3,1.1,6.1.7,9.2-.4.3-.9.7-1.3,1Z" />
        <path class="cls-3"
          d="M28,105.1c-.5-.8-1-1.6-1.5-2.4,1.2-1.1,2.6-2,3.9-3,4.9,0,9.7,0,14.6,0,1.3,0,3-.6,3.4,1.5,0,2.6,0,5.2,0,7.8-1.1.2-1.3-.6-1.6-1.4-.9-2,1.3-5.1-2.3-6.2-2.4-.2-4.7-.1-6.7,1.3-.6.2-1.1,0-1.5-.4-1.6-1.9-2.9-.5-4.2.4-1.3.9-2,2.7-4,2.3Z" />
        <path class="cls-173"
          d="M77.1,17.1c.3.5.5,1,.8,1.5-.5,1-.4,1.6.9,1.4,1.1.9.9,1.7,0,2.4-4,4.3-6.3,4-9.2-1.1,0-.4,0-.8.2-1.1,1.5-1.4,3.8-1.3,5.3-2.8.6-.4,1.3-.8,2-.4Z" />
        <path class="cls-11"
          d="M91.2,79.4c0-3.8,2.2-6.7,4.7-8.6,1.9-1.5,2,2,3.1,3.1-1.8,3-3.7,5.8-7.8,5.5Z" />
        <path class="cls-132"
          d="M78.7,108.2c.5,0,1.1,0,1.6,0-7.6,3-14.6,8-23.4,7,0-.3,0-.5,0-.8,2.8-1.6,6.3-.8,9-2.6.3-.1.7-.2,1-.3,1.2-.3,2.3-.7,3-1.7.6-.4,1.4-.6,1.9-1.2,2.2-1.3,4.5-1.7,6.9-.4Z" />
        <path class="cls-130"
          d="M16.3,45.9c.5.3,1,.5,1.6.8,1.5,3.5,1.2,7.4,2.2,11.1.2.9-.6,1.3-1.4,1.4-.3,0-.6,0-.8-.1-2.8-4.1-.7-8.8-1.5-13.1Z" />
        <path class="cls-214"
          d="M70.1,20.9c2.8,4.2,3.3,4.3,8.6,1.6,0,2.2-2.3,2.9-3.1,4.7-1,1.7-2.3,1.6-3.7.5-1-.8-1.8-1.7-2.5-2.7-.3-.3-.5-.6-.8-.8-.6-1.1-2.4-2-1.3-3.5.9-1.3,2-.4,2.9.4Z" />
        <path class="cls-196"
          d="M74,53.7c.5,1.3,1,2.6,1.6,3.9-.2,1.6.4,3,.7,4.4.3,1.4-.5,1.4-1.5,1-2.8-1.2-2.6-4.8-5-6.3-.5-.7-1.1-1.4-1.2-2.3,0-.3,0-.5,0-.8,1.8,0,3.6,0,5.5,0Z" />
        <path class="cls-23"
          d="M119.3,96.5c-6,.4-11.9,1.4-17.9,0-.5.3-.8.3-1.1-.3,0-.5.2-.9.7-1.1,5.2-1.3,10.5-1.1,15.8-1.7.9-.1,1.8,0,2.6.5.6.9.5,1.7-.1,2.5Z" />
        <path class="cls-136"
          d="M82.6,38.1q-3.4-4.3.8-6.2c4.1-.4,8,.6,11.7,2.3-3.7,0-7.4-1.7-10.9.8-1,.8-.5,2.4-1.6,3.1Z" />
        <path class="cls-78"
          d="M91.2,79.4c3.4-.6,5-4,7.8-5.5,1.6,3.5-1.6,4.9-3.3,6.7-3,3.2-3.1,3.1-4.5-1.2Z" />
        <path class="cls-143"
          d="M138,80.9c1.6-.7,3.1-1.8,4.7-2.1,2.2-.5,3.6.3,2.3,2.9-1.5.8-2.8,1.7-4.6,1.6-1.6.1-3,1.5-4.7.8h0c-.5-2,1.5-2.1,2.3-3.1Z" />
        <path class="cls-125"
          d="M19.4,25.6c-4.1.1-4.2,2.5-3.1,5.5-3.7-1.1-4.3-2.2-2.6-5.3,1.1-2,3.1-2.9,5-4.1,1.3-.8,2.6-1.6,3.8-2.4.8,1.1.5,2.3-.1,3.4-1.1.8-1.9,2-3,2.9Z" />
        <path class="cls-81"
          d="M46,97.2c1-1.2,2.4-.7,3.7-.7,9.7,0,19.4,0,29.1,0,0,.2,0,.5,0,.7-10.9,0-21.8,0-32.7,0Z" />
        <path class="cls-61"
          d="M188,89.5c-1.3-.7-2.9-1.3-4-.5-2.7,1.9-5.6,1.1-8.5,1.3,0-.8-2.7-2.2.6-2.4,3.7-.1,7.5.3,11.2-.3,1.6-.2,1,1,.7,1.8Z" />
        <path class="cls-133"
          d="M29.5,87.1c-.3-.5-.5-1-.8-1.6-1.8-4.1-4-8-5.8-12,1.8-1.8,2.7-.6,3.5,1.1,1.1,4.2,4.5,7.7,3.9,12.5-.3,0-.5,0-.8,0Z" />
        <path class="cls-93"
          d="M64.7,38.1c-.3-.5-.5-1-.8-1.6.6-.6,1.6-.6,2.3-1,.3,0,.6-.1,1,0,.6.1,1.2.2,1.7-.3.2-.2.5-.4.8-.5.3,0,.6.1.8.4.5,1.2,1.5,2.1,2.2,3.2-1.7,1.3-2.7,4.3-5.7,2.2-.8-.8-1.5-1.6-2.3-2.4Z" />
        <path class="cls-86"
          d="M70.1,35c-.2,0-.5,0-.7,0-.9-.7-.9-1.9-1.5-2.7-.5-.9-1.4-1.7-1.2-3,.3-.8.9-1.1,1.8-1.1,1.6.4,2.4,1.7,3.2,3,.8,1,1.6,2,2.4,3,.6,1.1.6,2.1,0,3.2-2,.3-2.2-2.1-3.9-2.4Z" />
        <path class="cls-185"
          d="M60.8,18.6c0-.3,0-.5,0-.8.8-.8,2.2-1.2,2.2-2.8.1-.7.4-1.4.9-1.9.8,0,1.6,0,2.3,0,.5.4.8,1,.9,1.6.1,2.4,1.2,4.9-.9,7-1.8-1-3.6-2.1-5.4-3.1Z" />
        <path class="cls-106"
          d="M101.3,99.7h6.6c-2.5,1.4-4.1,2.2-5.7,3.1-2.5.2-4.7-.9-7.1-1.3-1.5-.3-1-1.1,0-1.8.5,0,1.1,0,1.6,0,1.5.5,3.1.5,4.6,0Z" />
        <path class="cls-14"
          d="M60,46.6c-.8,0-1.8-.1-1.8-1.1.1-1.2,5-2.8,6-2,1.2,1.1,3.1,2.5,2.2,4.1-.7,1.2-2.8,1-4.1-.2,0-2.4-1.3-1.1-2.3-.8Z" />
        <path class="cls-157"
          d="M33.5,114.4c0,.3,0,.5,0,.8-4.4-1.2-8.7-2.8-12.5-5.4,1.4-1.4,3-.9,4.5-.2,1.7,1.3,3.8.3,5.6,1,.6.6.3,1.5.9,2.1.5.5,1.3.9,1.5,1.8Z" />
        <path class="cls-203"
          d="M101.3,60.7c.3,0,.6,0,.8,0-2.7,4.7-2.7,4.7-5.7.3-.8-1.1-2.2-1.9-2.1-3.5,1.3-.6,2.1.6,3.2,1,.6.3,1.2.5,1.8.7.8.3,1.5.7,2,1.4Z" />
        <path class="cls-179"
          d="M76.5,87.2c-3.1,1.5-6.3.4-9.5.7-.9-.9-2.3.1-3.2-.8,4.1-1.1,8.3-1.6,12.6-1.5.1,1.4-.6,1.2-1.5.8.3.7,1.3,0,1.6.8Z" />
        <path class="cls-139"
          d="M66.2,21.7c1.1-2.3-.3-4.7,0-7,.8-.5,1.4,0,1.9.4,1,1.1,1.8,2.2,2.4,3.6.1.6,0,1.1-.4,1.5,0,.2,0,.5,0,.7-5.2-1.3-1,2.1-1.6,3.1-.6,0-1.2-.2-1.6-.8-.3-.5-.5-1-.8-1.5Z" />
        <path class="cls-5"
          d="M54.5,85.5c1,.3,2.3-.1,3.2.9-3.3,2.1-6.7,2.6-10,0,1.7-1.4,1.9-1.4,6.8-.8Z" />
        <path class="cls-121"
          d="M97.4,59.1c-1.3,0-2-1.2-3.1-1.6-1.8-2.3-3.6-4.7-5.4-7-.3-1.3-.5-2.6-.8-3.9.1,0,.3-.1.4,0,3.5,3.8,6.8,7.8,9,12.6Z" />
        <path class="cls-212"
          d="M145.8,94.9c4.4,0,8.8,0,13.3,0,.8-.3.9,0,.8.8-.3,0-.5,0-.8,0-2.2.7-4.4,1.1-6.7.4-2,0-3.9.6-5.9,1-1.6,0-3.1.5-4.7,0-.9-.5-1.5-1.1-.8-2.2h4.7Z" />
        <path class="cls-88"
          d="M77.2,41.2c-3,1.4-2.5,4.8-4,7.1-.5-.5-1-1.1-1.4-1.6-1.5-1.8-1.6-3.3,1-4.2,1-.3,1.6-1.2,2.1-2,1.3-1.4,1.8-.1,2.3.8Z" />
        <path class="cls-189"
          d="M114.6,59.9c-2-.6-1-2.9-2.4-3.9-1.5-1.5-.8-3.6-1.4-5.4-.1-.9,0-1.7.7-2.4.6-.3.8-.9.8-1.6.3,0,.5,0,.8,0,0,3.4,0,6.7,1.2,10,.9-.3,0-1.9,1.3-2.2.1,1.9-.4,3.6-.8,5.4Z" />
        <path class="cls-181"
          d="M74,49.1c.7-2.9,3.8-1.2,5.3-2.6.4-.4,1.3,1.2,1.3,2,0,2.3-1.9.9-2.8,1.4-1.3-.2-2.7.4-3.9-.7Z" />
        <path class="cls-13"
          d="M159.1,89.5c-4.9,0-9.7,0-14.6,0-1.3,0-3,.6-3.3-1.5.5,0,1,0,1.5,0,2.3.6,4.7.6,7,0,.3,0,.5,0,.8,0,1.3.6,2.6.6,3.9,0,1.6.5,3.3.4,4.7,1.5Z" />
        <path class="cls-178" d="M56.7,48.3c-2.7,2-5.5,2.5-8.5.7,2.6-2.8,5.6-1.6,8.5-.7Z" />
        <path class="cls-108"
          d="M35,78.6c0-.5,0-1,0-1.6,3.1.3,5.7,2,8.6,3.1-.8,1.8-2.4,1.5-3.9,1.6-2-.3-3.7-1.3-4.7-3.1Z" />
        <path class="cls-41"
          d="M138.8,97.3c-4.6-1.1-9.3-.7-13.9-.8-1.4,0-2.9.5-4.1-.7.2-.2.3-.3.5-.5,5.1-1.4,10.4-.2,15.5-.8,1.3.5,2.8.8,1.9,2.8Z" />
        <path class="cls-157"
          d="M19.4,101.9c1,1.2-.8,1.5-.8,2.4.8,1.5.8,3.1,0,4.6-1.6-1-3.1-2-4.7-3.1,2.4-.5,2.7-3.9,5.4-3.9Z" />
        <path class="cls-159"
          d="M95.1,99.7c-.2.6-.6,1.4.5,1.4,2.4,0,4.4,1.3,6.7,1.6-3.5,1.2-6.6-1-9.9-1.2-.3,0-.7-.8-.7-1.2,0-.6.7-.7,1.1-.7.8,0,1.5,0,2.3,0Z" />
        <path class="cls-224"
          d="M18.7,21.7c-1.1,1-2.4,1.9-3.4,3-2.6,2.7-2.3,4.5,1,6.4,0,.3,0,.5,0,.8-4.6-1.6-5.2-5-1.4-8.4,1.1-.9,2.3-1.7,3.7-1.7Z" />
        <path class="cls-2"
          d="M38.9,10.8c0,.3,0,.5,0,.8-.3,1.2-1,2.1-1.6,3.1-.5,1-1.3,1.8-2.3,2.3-.9-.2-1.4-.9-1.9-1.5-.2-.3-.4-.5-.5-.9,1.9-1.6,4-2.9,6.3-3.8Z" />
        <path class="cls-93"
          d="M67.8,15.5c-.5-.3-1-.5-1.6-.8,0-.5,0-1.1,0-1.6,1.4-.7,2.6-2.7,4.5-.7-.2.3-.7.6-.4,1,.4.5.9,0,1.4-.1,1.2.3,2.2.8,2.5,2.1.2.4.2.7,0,1.1-.4.2-.7.3-1.2.3-1.7-.3-3.6,0-5.1-1.2Z" />
        <path class="cls-30"
          d="M180.9,94.9c2.1,0,4.2,0,6.2,0,.3-.3.6-.3.8,0,.1.8,1.5,2-.6,2-2.1,0-4.3-.3-6.4-.5-.4-.5-.5-1,0-1.6Z" />
        <path class="cls-62"
          d="M26.4,74.7c-.7-1.2-2.1-1.1-3.1-1.6-.8-.2-1.1-1-1.6-1.6h0c-.4-.5-.5-1,0-1.6,3.6.7-.8-2.4,1.6-2.5.7,2.4,3,4.2,3.1,7.1Z" />
        <path class="cls-64"
          d="M63.9,15.5c.3,2.5-1.4,2.4-3.1,2.3-.1-1.9,1.4-3.8-.6-5.7-.6-.6.5-1.2,1.3-1.3.6.7,1.1,1.5,1.7,2.2,0,.9-.3,1.8.7,2.4Z" />
        <path class="cls-175"
          d="M33.5,61.4c.3-1.3.5-2.6.8-3.9.5-1,1.3-1.8,2.3-2.3,1-.5,1.8-1.5,3-1,.8,2.3-1.3,3-2.3,4.3-.9,1.1-1.8,2.1-2.8,3.1-.4.2-.7.2-1,0Z" />
        <path class="cls-211"
          d="M34.2,52c-1.4-1.4-.6-3.1-.8-4.6.5-.6,1.2-.7,1.9-.5,1.2,1,2.9.2,4.1,1.2,0,0,.3,0,.3,0-1.7,1.6-4.3,1.7-5.6,3.8Z" />
        <path class="cls-205"
          d="M138.8,97.3c.1-1.2-1.1-1.5-1.6-2.3-.2-.2-.2-.4-.2-.6,0-.2,0-.3.1-.3.6-.5,1.3-.5,2-.2.1.1.3.2.4.4.3.7.9.8,1.6.8,0,.6.2,1.2.8,1.5.6.7,1.9.6,2.3,1.6-2.1,1.6-3.7-.4-5.5-.8Z" />
        <path class="cls-49"
          d="M23.3,55.2c3.8,1.5,2,5.2,3.1,7.8-2.6,1-.9-2.2-2.3-2.4-.3-1.8-.5-3.6-.8-5.4Z" />
        <path class="cls-152"
          d="M73.3,37.3c1.1-.8.6-2.1.7-3.1,2.8,4.3-1.6,5.1-3.5,6.9-1.1,1.1-2.7,1.8-3.5-.7,2.5.9,3.8-1.3,5.6-2.3.1-.4.4-.6.7-.8Z" />
        <path class="cls-104"
          d="M61.6,23.3c1.5.8,3.1,1.6,4.6,2.4.3.7.8,1.2,1.6,1.5.2.2.3.4.2.6,0,.2-.1.3-.2.3-3.3,1.1-5.6-.5-7.2-4.8.3-.3.6-.3.9,0Z" />
        <path class="cls-105"
          d="M87.3,100.3c-.3,1.1.6,3-1.3,2.9-2,0-2.3-2-2.6-3.6,1.3,0,2.7-.5,3.9.6Z" />
        <path class="cls-16"
          d="M144.3,98c-1.1,0-1.9-.5-2.3-1.6,1.6,0,3.1,0,4.7,0,1.6-.5,3.2-.6,4.8,0-2.1,1.8-4.6,1.5-7.1,1.6Z" />
        <path class="cls-222"
          d="M21.8,70c0,.5,0,1,0,1.6-.3-.3-.6-.5-.8-.8q-2.6-4.4-6.3-1.5c.3-2,1.6-3.6,3.4-3.7,2.6,0,2.4,2.9,3.6,4.5Z" />
        <path class="cls-219"
          d="M100.5,96.4c.3,0,.6,0,.9,0-4.1,1.5-8.4.4-12.5.7-.9-.7-1.2-1.3-.8-1.5.6-.5,1.2-.4,1.9-.2,3.5.8,7.2-1.4,10.5.9Z" />
        <path class="cls-53"
          d="M22.6,22.5c-.8-1,0-2.1,0-3.1.3-.2.5-.5.8-.7,1.2.4,3-.6,3.5,1.5,0,2.7-1.6,3.1-3.8,2.8-.2-.1-.3-.3-.5-.4Z" />
        <path class="cls-75"
          d="M26.4,101.9c-4.1-2.5-1.2-3.9.8-5.5.3.7.6,1.5.9,2.2,0,1.3-.5,2.5-1.7,3.2Z" />
        <path class="cls-171"
          d="M26.4,101.9c.1-1.3.6-2.4,1.7-3.2.7.3,1.5.6,2.2.9-.3,2.2-1.7,3.1-3.9,3,0-.2,0-.5,0-.7Z" />
        <path class="cls-189"
          d="M104.5,36.5c.5.8,1,1.6,1.6,2.3-2.1.9-3,2.8-3.9,4.7-1.6-2.6-.8-4.8.8-7,.5,0,1,0,1.6,0Z" />
        <path class="cls-127"
          d="M76.5,87.2c-.6-.1-1.2-.2-1.8-.3.6-.4,1.1-.8,1.7-1.3,1.8-.3,3.7-.6,5.5-.9.5.9-.3,1.2-.8,1.6-1.4.9-3,.9-4.6.9Z" />
        <path class="cls-36"
          d="M138.8,59.1c0,1.3,0,2.6,0,3.9-2.8-.7-2.1-3.5-3.2-5.2-.2-1.1-.9-2.3,0-3.4,0,0,0,0,0,0,1.6,1.2,2.6,2.8,3.1,4.7Z" />
        <path class="cls-42"
          d="M18.7,108.9c-.6-1.5-.6-3.1,0-4.6.3,0,.5,0,.8,0,.8,2.3,3.8,2.4,4.8,4.5-1.6.9-3.2.7-4.8.2-.2,0-.5,0-.7,0Z" />
        <path class="cls-3"
          d="M19.4,109c1.6-.3,3.3.6,4.7-.8-.3-.3-.4-.6-.3-.9.4-.8.6-1.7,1.9-1.4,0,.6.2,1.2.8,1.6.4.3.5.8.4,1.2,0,.5-.3.9-.5,1.3-.2.3-.4.5-.7.6-1.5-.9-3.1-.8-4.7-.8-.6,0-1.2-.2-1.6-.8Z" />
        <path class="cls-164"
          d="M154.5,101.2c-.3.3-.5.5-.8.8-1.7.9-3.5,1.3-5.5.8-1.3-2.7,1.6-1.6,2.3-2.5h0c1.4-.3,3.1-1.3,4,.9Z" />
        <path class="cls-21"
          d="M180.9,94.9c0,.5,0,1,0,1.6-.6.9-1.5.8-2.3.8-.8-1.3-1.6-1.3-2.3,0-1-.4-1.6-1.2-1.6-2.3,2.1,0,4.2,0,6.2,0Z" />
        <path class="cls-26"
          d="M68.6,99.7c-1.6,0-3.2,0-4.8,0,4.2-1.2,8.4-1.2,12.5,0-2.6,0-5.2,0-7.8,0Z" />
        <path class="cls-156"
          d="M150.5,100.4c-.5,1-2.4.6-2.3,2.3-.5.7-1.3.4-2,.4-.6-1.8-2.1-.9-3.2-.9-.7-.5-.9-1.1-.2-1.7,2.6,0,5.1,0,7.7,0Z" />
        <path class="cls-227"
          d="M60,46.6c.4-2.2,2-1.4,3.3-1.5.6,0,1.1.4,1,.9-.2,1.1-1.1,1.3-2,1.4-.8-.3-1.5-.6-2.3-.8Z" />
        <path class="cls-224"
          d="M69.3,24.9c2.1.6,3.1,4.5,6.2,2.3-.3,2.7-1.8,2.5-3.5,1.3-1.3-.9-2.6-1.8-2.7-3.6Z" />
        <path class="cls-182"
          d="M130.2,74.7c-.3,0-.6,0-.8,0-1-.5-1.8-1.3-2.3-2.4-.5-1.3-1-2.6-1.6-3.9,3.5.6,4.6,3.1,4.7,6.2Z" />
        <path class="cls-146"
          d="M145.8,102.7c.8,0,1.6,0,2.3,0,1.9.7,3.6-.9,5.5-.6-2.9,2.8-6.2,1.5-9.4.7.5-.4,1-.5,1.6,0Z" />
        <path class="cls-99" d="M60,36.5c2,1.7-.4,2.6-.8,3.9-.2,0-.5,0-.7,0-1.8-2.2.6-2.7,1.5-3.9Z" />
        <path class="cls-161"
          d="M152.1,95.7c2.3,0,4.7,0,7,0-2.2,1.5-4.5,2.2-7.1.8-.3-.2-.3-.4-.2-.5,0-.2.2-.2.3-.2Z" />
        <path class="cls-152"
          d="M74.8,40.4c0,1.2-.6,2-1.6,2.3-2.3.7-2,2.2-1.5,3.9-2.2-1.5-2.3-3,.2-4.4,1-.6,2-1.2,3-1.8Z" />
        <path class="cls-115" d="M99.3,86.9c2.6-2.2,4.6-.7,6.6,0h-6.6Z" />
        <path class="cls-226" d="M38.6,87.1c2,0,4.1-.3,5.9,1.1-2.1.6-4-.4-5.9-1.1Z" />
        <path class="cls-77"
          d="M71.7,13.2c-.3,1.9-1.7,1.5-2.9,1.3-.5,0-.9-.5-.6-1.1.5-1.1,1.5-1.1,2.5-1.1.3.3.6.5.9.8Z" />
        <path class="cls-7"
          d="M188,95c-.3,0-.5,0-.8,0,.3-.6.9-.8,1.6-.8,2.6-.7,5.2-.5,7.8,0,0,0,0,0,0,0-2.7,1.6-5.7.3-8.6.8Z" />
        <path class="cls-69"
          d="M54.5,85.5c-2.3.4-4.8-1.2-6.8.8-.8-.2-.9-.8-.9-1.5,2.6.3,5.3-.7,7.8.7Z" />
        <path class="cls-9"
          d="M86.5,62.2c1.3-.7.3-2.5,1.6-3.1.5.8,1,1.6,1.5,2.4-1.1,0-1.6,2.4-3.1.8Z" />
        <path class="cls-52"
          d="M78.8,20.1c-.2.6-.1,1.3-.9,1.4-.7,0-1.1-.5-1.3-1.1-.3-1.1.3-1.6,1.3-1.7.3.5.6.9.9,1.4Z" />
        <path class="cls-63"
          d="M151.3,84c1.1,0,2.3.1,3.4,1.5-1.9,0-3.5.7-5.1-.6.3-.8,1.3-.4,1.7-.9Z" />
        <path class="cls-137"
          d="M32.7,14.7c.2,0,.5,0,.7,0,.2,2.6,0,4.3-3.2,2.4-.3-.6-.3-1.2.2-1.7.8-.3,1.5-.6,2.3-.9Z" />
        <path class="cls-221"
          d="M30.4,15.6c0,.5,0,1,0,1.5.6.8.7,1.5,0,2.3-1-.5-2.3-.8-2.4-2.3.8-.5,1.6-1,2.4-1.5Z" />
        <path class="cls-194"
          d="M9.1,57.4c1.1-.2,2.2-.4,3.3-.6.9.1,1.9.2,1.6,1.5h0c-1.6.6-3.1.6-4.7,0-.8-.2-.7-.6-.1-1Z" />
        <path class="cls-176" d="M149.7,87.9c-2.3,1.2-4.7,1.2-7,0,2.3,0,4.7,0,7,0Z" />
        <path class="cls-84"
          d="M74,16.3c0-.3,0-.6.1-.9,1.2.2,2.5.2,3,1.8-.5.2-1,.5-1.5.7-1.3.2-1.8-.3-1.6-1.6Z" />
        <path class="cls-224"
          d="M67.9,27.9c0-.2,0-.5,0-.7,2.2.4,3.6,1.7,3.9,4-1-.8-2-1.6-3-2.5-.3-.2-.8-.3-.8-.8Z" />
        <path class="cls-33"
          d="M83.4,84c1.1-.7,2.2-1.3,3.5-2.2,0,2.3-1.7,2.3-2.7,3-.3-.2-.8-.3-.8-.8Z" />
        <path class="cls-59"
          d="M26.5,20.2c-.7-1.3-2.4-.4-3.2-1.5.8-.3,1.6-.6,2.4-.8,1,.4,1.6,1.2,1.6,2.3-.3.4-.5.4-.8,0Z" />
        <path class="cls-146"
          d="M142.8,100.4c0,.6,0,1.2.7,1.5.2.1.2.3.2.4,0,.2,0,.3-.1.3-.6-.2-1.3-.2-1.8-.5-.6-.4-1.5-1-1.1-1.7.4-.8,1.3.1,2.1,0Z" />
        <path class="cls-7"
          d="M119.3,96.5c0-.8,0-1.6,0-2.3-.4-.4-.5-.9-.5-1.5,0-.4.3-.6.6-.9.5.8,1,1.6,1.5,2.3.1.1.2.2.3.3.2.5.1.9-.2,1.2,0,0-.1,0-.1,0-.5.2-1,.5-1.6.7Z" />
        <path class="cls-213"
          d="M159.9,95.7c-.3-.3-.5-.5-.8-.8,1.5-1.2,3.1-1.2,4.6,0-1.3.3-2.5.5-3.8.8Z" />
        <path class="cls-224" d="M15.5,35c-1.8,0-2.4-1.8-3.9-2.3,2.5-1.2,2.8,1.2,3.9,2.3Z" />
        <path class="cls-56"
          d="M63.9,15.5c-.5,0-1.2.7-1.5-.2-.2-.8,0-1.7.8-2.2.2,0,.4,0,.7,0,0,.8,0,1.6,0,2.3Z" />
        <path class="cls-156"
          d="M154.5,101.2c-1.1-1.4-2.6-.7-4-.9,1.4-1.3,3.1-.5,4.7-.7.5.5.5,1,0,1.5-.2,0-.4,0-.7.1Z" />
        <path class="cls-97"
          d="M83.4,84c.3.3.5.5.8.8-1.1.4-1.8,1.7-3.1,1.6.3-.5.5-1.1.8-1.6.3-.6.9-.7,1.5-.7Z" />
        <path class="cls-144"
          d="M151.3,84c-.4.7-1,.8-1.7.9-.7,0-1.5,0-3.1-.2,2.1-.9,3.4-1.3,4.8-.7Z" />
        <path class="cls-40"
          d="M135.7,84c1.6-.3,3.1-1.1,4.7-.8-1.1,1-2.6,1.2-3.9,1.6-.3-.3-.5-.5-.8-.8Z" />
        <path class="cls-164"
          d="M143.6,102.6c0-.2,0-.5-.1-.7.6-.9,1.5-1,2.3-.6.6.3.1.9,0,1.3-.5,0-1.1,0-1.6,0-.2,0-.4-.1-.6-.1Z" />
        <path class="cls-215"
          d="M39.7,54.4c-1,.3-2.1.5-3.1.8.8-1.6,2.3-2.1,3.9-2.3,0,.3,0,.5,0,.8,0,.4-.4.7-.8.8Z" />
        <path class="cls-205"
          d="M152.1,95.7c0,.3,0,.5,0,.8,0,0-.3,0-.3,0,0,0-.3,0-.3,0-1.6,0-3.2,0-4.8,0,1.7-1.4,3.7-.5,5.5-.7Z" />
        <path class="cls-158"
          d="M35,83.4c0,.1.4.6.5,1.1,0,.2-.2.8-.4.8-.6.2-.8-.4-1-.9-.1-.3-.2-.7.9-1Z" />
        <path class="cls-188" d="M63.8,87.1c1.1.2,2.4-.3,3.2.8-1.2,0-2.6.3-3.7,0-.7-.2.1-.6.5-.7Z" />
        <path class="cls-159" d="M101.3,99.7c-1.5,1.1-3.1,1.1-4.6,0,1.5,0,3.1,0,4.6,0Z" />
        <path class="cls-210" d="M9.2,58.3c1.6,0,3.1,0,4.7,0,0,.2,0,.5,0,.7-1.6,0-3.3.6-4.7-.7Z" />
        <path class="cls-65" d="M154.4,87.9c-1.3,1.1-2.6,1.1-3.9,0,1.3,0,2.6,0,3.9,0Z" />
        <path class="cls-142"
          d="M99.8,83.2c-.2.8-.7,1-1.4.8-.2,0-.4-.4-.4-.5.3-.8.8-1.2,1.7-1.1,0,.2,0,.5,0,.7Z" />
        <path class="cls-146" d="M155.1,101.1c0-.5,0-1,0-1.5.3-.4.8-.9,1.1-.3.6,1.1-.4,1.4-1.2,1.8Z" />
        <path class="cls-50" d="M176.3,97.3c.1-.8.3-1.5,1.3-1.4.8.1.9.8,1,1.4-.8-.5-1.6-.5-2.3,0Z" />
        <path class="cls-51"
          d="M140.3,90.3c.5,0,1.1,0,1.6,0-.2,1.6.8,4-2.3,3.9,0,0,0,0,0,0-.4-.3-1-.5-1.2-1-.4-1.7.9-2.1,1.9-2.8Z" />
        <path class="cls-111"
          d="M196.5,94.1c-2.6,0-5.2,0-7.8,0-.6-.9-1.5-.7-2.3-.8,3.5-1.3,6.8.1,10.1.8Z" />
        <path class="cls-70"
          d="M29.5,46.7c-.3-.3-.5-.5-.8-.8,0-1.2.6-3-1-3.4-1.3-.3-1,1.6-1.6,2.2-2.8,2.7-2.1,6.4-2.9,9.7-.9-3.3-1.4-6.7-1.5-10.1,0-2.3.3-4,3.2-4,2.8,0,4.6.6,4.6,3.7,0,.9,0,1.8,0,2.7Z" />
        <path class="cls-187"
          d="M19.4,25.6c.3-1.8.9-3.3,3.1-3.1,0,0,0,0,0,0,.6.6,1.6.8,2,1.7.5,1.1.3,2.4,1.3,3.3,1.2,1.3,2.1,2.8,2.3,4.6.1.6.2,1.3.6,1.8.4.6,1.3,1,.9,2-1.7,0-3.3-.4-4.7-1.5-1.5-1.2-.9-3.5-2.3-4.7-1-1.3-1.6-3-3.1-3.9Z" />
        <path class="cls-150"
          d="M35.8,47.4c-.8,0-1.6,0-2.4,0,.9-2.9-2-5.7,0-8.6.4-.4.9-.5,1.4-.3.7.5-.2,1.6.8,1.9.8.9,1.1,2,1.9,2.9,2.5,2.7,2.5,2.7-.8,4.4-.4,0-.7,0-1-.3Z" />
        <path class="cls-82"
          d="M32.7,31.9c1.8.3,4.4-4.7,5.5.8-.3.3-.5.5-.8.8-.4,1.1-1.6.9-2.4,1.5-.3,0-.5,0-.8,0-1.6.1-.9-1.6-1.7-2.1,0-.3,0-.7.2-1Z" />
        <path class="cls-68"
          d="M22.5,29.5c1.9,1,1.8,3,2.3,4.7-2.6,1.5-4.6.6-6.3-1.6.4,0,.8-.1,1.1,0,3.9,1.5,3.9-.4,2.9-3.2Z" />
        <path class="cls-46"
          d="M35,34.9c.8-.5,1.6-1,2.4-1.5.4,1.1,1.3,1.5,2.4,1.6.3,1.1-.4,1.6-1.1,2.2-1.2.7-2.1,1.8-3.7,1.6-.5,0-1,0-1.5,0,.5-1.4,2.1-1.5,2.8-2.5,1.5-2.3-.8-1-1.3-1.4Z" />
        <path class="cls-79"
          d="M32.7,32.6c2-.2.8,1.6,1.5,2.3-.3.7-.9.7-1.5.8-1,.6-1.8.7-2.5-.4.5-1.2.8-2.7,2.6-2.7Z" />
        <path class="cls-140"
          d="M30.3,35c.6.9,1.5.7,2.3.8-1,1.1-2.1,1.1-3.1,0-.5-.5-1-1-1.6-1.6.1-.6.5-1,1.1-1.3.8-.2,1.6-.2,2,.6.4.7-.2,1.1-.7,1.5Z" />
        <path class="cls-148"
          d="M71.7,109.7c-.6,0-1.2.2-1.6.8-.9.8-2.1,1-3.1,1.6h0c-2.1.5-4.2,1.2-6.4,1.4-3.1.3-5.9-2-6.9-5.3,0,0,0,0,0,0,0-1.2.6-1.2,1.4-.6,1.2.8,1.6.1,1.7-1,3,6.1,6.5,5.7,14,1.6,1.3,0,1.3.6.8,1.5Z" />
        <path class="cls-199"
          d="M71.7,109.7c0-.6-.1-1.2-.8-1.5-1-.6-2.5-1.3-1.8-2.5.8-1.4,2.3-.3,3.4.2,2.9,1.2,8.1,0,9.3-2.3,2.1,3.6-2.4,2.9-3.1,4.7-2.5,0-5-.4-7,1.6Z" />
        <path class="cls-43"
          d="M53,30.3c.5.5,1,1.1,1.6,1.6,1.6,6,1,6.9-7,10.9-1.2-1.2-1.1-2.9-1.5-4.4,0-.6,0-1.1.3-1.7,1.3-1.5,3.9-1.8,3.9-4.5,0-.9-1-1.2-1.3-2l.9-.7c1.3-.6,2.4-.5,3.1.8Z" />
        <path class="cls-135"
          d="M41.3,23.2c-.3-1.3-.6-2.5-.8-3.8,1-1.1,2.9-.4,3.8-1.7.3-.1.7-.1,1,0,1.5,1,1.9,2.6,2.7,4,.4,1.2,1,2.4.7,3.8-.2.6-.6.9-1.2,1.1l-.9.6c-3.3.8-4.5-1.3-5.3-3.9Z" />
        <path class="cls-217"
          d="M47.5,26.4c.3-.3.5-.6.8-.9.9-1.5-.2-2.6-.8-3.8l-2.4-3.9c-.6-2.8,1.1-2.3,2.6-1.8,1.4.5,2.1,1.8,2.1,3.3.3.6.9.8,1.6.8.2,1.7-.3,3.3-1,4.7-.5,1-1,2.8-2.9,1.6Z" />
        <path class="cls-124"
          d="M61.6,23.3c-.3,0-.5,0-.8,0-3.4.2-4.5,2.9-5.6,5.5-1.8-.3-2-1.7-2.2-3.1.3-.7.6-1.4,1-2,2.8-4.4,4-4.4,7.5-.3Z" />
        <path class="cls-87"
          d="M41.3,23.2c1.4,1.9,3,3.4,5.3,3.9-1.7,1.1-3.9,1.6-5.4,3.2-1.4-.6-1.7-1.8-1.6-3.1.8-1.2,1.9-2.3,1.6-4Z" />
        <path class="cls-190"
          d="M38.1,36.6c.5-.5,1.1-1.1,1.6-1.6,2.6-1.3,5.1-2.6,7.7-3.8.3.6-.3,1.3.2,1.9-.5,1.2-1.6,1.7-2.4,2.5-.7.6-1.6.9-2.5,1.2-1.2.2-1.9,1.3-3.1,1.5-1.3.3-2.5.2-1.6-1.7Z" />
        <path class="cls-85"
          d="M47.5,32.6c-.9-.5-.1-1,0-1.5.5-.3,1-.7,1.5-1,1.1.1,2.4,0,2.4,1.6-1.1,1-2.3,1.9-3.9.8Z" />
        <path class="cls-124"
          d="M53,30.3c-1-.3-2.1-.5-3.1-.8.5-.5,1-1,1.6-1.5,1.6,0,1.6,1.2,1.6,2.3Z" />
        <path class="cls-155"
          d="M136.5,57.5c1.1,1.7.9,3.9,2.3,5.5,0,0,0,0,0,0,.6,1.7.3,3.6,1,5.3-2.1,1.4-3.8-.1-5.6-.7-1.3-.8-2-2.4-.7-3.1,3.1-1.6,1.8-3.5.7-5.3-1.3-2.2-3.3-3.2-6-2.3-.5.2-1,.3-1.5.4-.3,0-.7,0-1-.2-.6-.8-1.4-1.2-2.3-1.5-.3-.2-.4-.5-.4-.9.3-.9,1.1-1.3,1.8-1.8.3-.3.5-.5.8-.8,5.5-1.8,8.5,1.2,10.9,5.4Z" />
        <path class="cls-89"
          d="M130.2,74.7c-1.3-2.3-2.3-4.8-4.7-6.2-2-1.3-2.5-3.4-3.1-5.5-.7-1.2-.8-2.7-1.6-3.9h0c-.8-2.3-.5-3.8,2.3-3.9h0c.6.8,1.8.7,2.3,1.6h0c-1.2,3.5.1,6.4,2.4,8.9,2.2,2.5,3.4,5.5,4.4,8.5.6,1.6,1.3,3.1,2.5,4.3-1.4,1.2-2.5,1.3-3.2-.7-.4-1.1-1-2.1-1.5-3.2Z" />
        <path class="cls-100"
          d="M136.5,57.5c-2-.6-2.2-2.9-4-3.9-2.2-1.3-4.6-1.2-6.9-1.5,4.4-3.4,7.2-.4,10.1,2.3.3,1,.5,2.1.8,3.1Z" />
        <path class="cls-182"
          d="M123.2,55.2c-1.6.8-2.5,2-2.3,3.9-2-3.3-1.2-4.5,3.9-6.2-.5.8-1,1.6-1.6,2.3Z" />
        <path class="cls-182" d="M120.8,59.1c1.2,1,1.6,2.4,1.6,3.9-1.2-1-1.6-2.4-1.6-3.9Z" />
        <path class="cls-109"
          d="M33.5,114.4c-.8-.5-1.6-1-2.3-1.6,1.4-1.3,3.1-2.2,4.8-2.3,5.4-.2,6.8-3.8,7.5-8.1.1-.8.4-1.5,1-2.1,2.1-.2,3.4.4,3.1,2.9-.1,1.4,0,2.8,0,4.1-.5,4.3-2.6,7.1-7,7.8-2.4.4-4.7-.6-7-.8Z" />
        <path class="cls-90"
          d="M53.7,108.2c1.9,3.4,4.7,5,8.7,4,1.5-.3,3.1-.1,4.6-.2-3,2.2-6.5,2.6-10.1,2.3-1.2-2-3.9-3.3-3.1-6.2Z" />
        <path class="cls-22"
          d="M40.5,115.2c3.6-1.5,5.5-4.4,7-7.8,0,.6.2,1.2.8,1.6-1.9,5.6-2.6,6.2-7.8,6.2Z" />
        <path class="cls-222"
          d="M21.8,71.6c.7.3,1.3.8,1.6,1.6,2.2,4,4.8,7.8,5.5,12.5-2.8-3.2-4.3-7.2-6.2-10.9-.3-1-.5-2.1-.8-3.1Z" />
        <path class="cls-28"
          d="M80.3,59.1c.3,0,.5,0,.8,0,.6.5,1.1,1,1.3,1.8.2.8,0,1.5-.5,2.1,1.8,4,.2,7.8-.8,11.7-2.2,1.2-2.7,0-2.6-1.9.1-3.3,1-6.6-.5-9.8,0-.3,0-.5,0-.8-.4-1.9-1.3-4.3,2.3-3.1Z" />
        <path class="cls-134"
          d="M81.8,63c0-.8,0-1.5,0-2.3.7-1.5,1.8-1.6,3.1-.8.3.8.5,1.5.8,2.3-1,1.6-2.6.7-3.9.8Z" />
        <path class="cls-120"
          d="M134.9,78.6c-1.7.3-2.2-.7-2.7-2.1-1.3-4.5-3.3-8.7-6.5-12.2-2.4-2.6-2.8-4.9-.2-7.5,6.4-2.1,7.5-1.6,10.6,4.6,1,1.9,1.7,3-1.3,3.2-1.7.1-2,1-.8,2.3,2.1,3.4,6.3,4.1,8.8,6.9.4,1.1,0,1.8-1,2.4-2.4.6-4.9,1-7,2.3Z" />
        <path class="cls-40" d="M138,80.9c-.8,1-1.6,2.1-2.3,3.1q-1.7-2,2.3-3.1Z" />
        <path class="cls-98"
          d="M141.1,68.5c.7,1.2,1.9,2.2,1.6,3.9-.2,0-.4.1-.5.2-1.6-.9-3.1-1.9-2-4.1.3-.3.7-.3,1,0Z" />
        <path class="cls-36"
          d="M141.1,68.5c-.3,0-.5,0-.8,0-.3.3-.5.2-.8,0-1.1-1.7-.7-3.6-.8-5.4,1.3,1.6.6,4.1,2.3,5.5Z" />
        <path class="cls-98"
          d="M141.9,76.2c.3-.8.5-1.5.8-2.3-.4-.5-.5-1,0-1.6,0,0,0,0,0,0,1,1.6,1.7,3-.8,3.9Z" />
        <path class="cls-120"
          d="M101.3,60.7c-.8-.3-1.6-.5-2.3-.8-.9-.8-1.3-1.9-2-2.8-.5-1-1.3-1.9-1.8-2.9,0-.2,0-.3,0-.5-1.1-3-1.9-6-4-8.5-1.3-1.5-2.8-3.3-1.6-5.9,1.3-2.7,3.6-1.7,5.7-1.9,1.3,1.1,2.4,2.4,2.5,4.2.2,5.3,1.6,10.3,4,15.1.5,1,1.1,2.1.6,3.3-.3.3-.5.5-.8.8Z" />
        <path class="cls-39"
          d="M102.1,59.9c-2.9-5.5-5.7-11.1-5.4-17.5,0-1.9-.8-3.4-1.6-5,1.3.8,2.6,1.6,3.9,2.3,1,3.9,2.1,7.8,3.1,11.7,0,2.1-.1,4.1,1,6,.7,1.2.8,2.3-1,2.5Z" />
        <path class="cls-174"
          d="M97.4,56.8c1,.8,1.4,1.9,1.6,3.1-.6,0-1.2-.1-1.6-.8-3.8-3.6-5.6-8.8-9.4-12.5-1.8-2.9-3.6-5.7-5.5-8.6,0-1.3.1-2.5,1.6-3.1-.7,2.7.9,4.8,2.4,6.6,3.2,3.8,5,8.6,8.5,12.1,0,0,0,0,0,0,.7,1.1,1.6,2,2.3,3.1Z" />
        <path class="cls-204"
          d="M70.1,56c2.7,1.6,3.2,4.6,4.6,7-.5,3.9,1.5,8.1-1.5,11.7-.6-.5-.7-1.2-.8-1.9,0-.3,0-.7.1-1,.6-1.2-.4-2.1-.8-3.1-.7-2-.9-4-1.7-6-.3-.7-.7-1.5-1.6-1.3-.7.2-.9.9-1,1.5-.4,2.1,0,4.1-.2,6.2,0,1.5.3,3.2-1.4,4.2-.4,0-.7-.3-.9-.7-.9-2.1-.4-4.2-.5-6.3,0-.9,0-1.7,0-2.6,0-1.8-.1-3.6.3-5.3,1.1-2.5,2.7-3.8,5.5-2.3Z" />
        <path class="cls-38"
          d="M70.1,79.3c-3.4-.7-6.3-1.8-5.5-6.2.3-.3.5-.3.8,0h0c.9.8,1.6,1.8,2.6,2.5,1.5,1.5,2.9-.8,4.4-.1,0,1.8-1.8,2.5-2.4,3.9Z" />
        <path class="cls-198"
          d="M80.3,59.1c-2.5-.2-2.4,1.4-2.3,3.1-1.4-1.3-.4-3.3-1.6-4.7.1-.9-.4-2.4,1.5-1.6,1.3.6,2.3,1.5,2.4,3.1Z" />
        <path class="cls-131"
          d="M72.5,75.5c-1.5.5-2.6,3.5-4.7.8,1.3-2.1,3.1-3.3,5.5-3.9,0,.8,0,1.6,0,2.3-.3.3-.5.5-.8.8Z" />
        <path class="cls-10"
          d="M49.8,19.4c-1.6-.5-1.8-5.3-4.7-1.5-.2,0-.5,0-.7,0-1.2.2-2.2.2-3.1-.7,1.2-1.7,5.3-2,2.3-5.5,2.3-.3,4.7-.7,6.2,1.6,1.4,2,1.9,4.1,0,6.2Z" />
        <path class="cls-27"
          d="M30.3,19.4c0-.8,0-1.5,0-2.3,2.3.9,2.5-.9,3.1-2.3,1,.4,1.1,1.5,1.6,2.3.3.5.5,1,.8,1.6-.6,1.5-1.8,2.4-3,3.3-.3.1-.6,0-.9-.2-.5-.8-1-1.6-1.5-2.4Z" />
        <path class="cls-145"
          d="M37.4,21.7c1.6,1.7.7,3.1-.8,4.1-2.2,1.5-2.7-.9-3.9-1.8-.5-.5-.4-1.1,0-1.7,1.5-1.1,3.1-.9,4.7-.6Z" />
        <path class="cls-66"
          d="M37.4,14.7c-1-1.8.4-2.4,1.6-3.1.6,0,1.2.1,1.6.7,0,.8.2,1.6,0,2.4,0,.9-.3,1.9-1.3,2-1.4.2-.8-1.7-1.8-2Z" />
        <path class="cls-220"
          d="M37.4,21.7c-1.4,1.4-3.1.5-4.7.8-.2-.2-.3-.3-.2-.5,0-.2.2-.3.2-.3.2-1.8,2-2.2,3.1-3.1.5,1,1,2.1,1.6,3.1Z" />
        <path class="cls-141"
          d="M41.3,17.1c1.1,0,2.3-.4,3.1.7,0,3.7-2.8.7-3.9,1.6.3-.8.5-1.6.8-2.3Z" />
        <path class="cls-209" d="M40.5,14.7c-1-.8-1-1.6,0-2.4,1.1.8,2.4,1.6,0,2.4Z" />
        <path class="cls-202" d="M50.6,8.5c-.1.8,0,2-1.3,1.8-1.1-.2-.4-1.2-.2-1.8.5,0,1,0,1.5,0Z" />
        <path class="cls-59"
          d="M32.7,21.7c0,.3,0,.5,0,.8,0,.5,0,1,0,1.6,0,.5,0,1,0,1.6-1.3-1.1-.6-2.6-.8-3.9.3,0,.5,0,.8,0Z" />
        <path class="cls-32"
          d="M43.6,80.1c-3.4.5-6-1.4-8.6-3.1-.6-.3-.8-.9-.8-1.6-.1-2.7-2.9-5.5.7-7.9-1-.5-2.2-.5-3-1.4-.1-1.1.2-2.1.8-3.1,1.3-.3,2.1.8,3.1,1.1,2.2.9,2.9,2.5,2,4.9-1.6,4.1-.2,6.2,4.6,7.3.6-.3,1.2-.6,1.9-.8.9-.2,1.8-.1,2.5.6.2.3.2.7,0,1-.4.6-1.1.9-1.6,1.3-1,0-1.5.5-1.6,1.6Z" />
        <path class="cls-32"
          d="M63.9,77.8c2,3.7-.5,3.9-3.1,3.9-.2-.3-.4-.6-.4-.9-1.1-2.3-4.6-3.4-3.2-6.9,1.7-2,5.1-2.7,4.2-6.5-.4-1.6-.7-3-2.1-3.9-1-1.1-.7-2.4-.6-3.7.3-.8.9-1.2,1.7-1.1.4,0,.7.3,1,.5,2.3,1.7,2.9,4.2,3.1,6.9-.3,2.3.7,4.8-.8,7-.6.3-.8.9-.8,1.6-2,1.6-.9,2.4.8,3.1Z" />
        <path class="cls-32"
          d="M60.8,80.9c0,.3,0,.5,0,.8-1.1,1.3-2.6.6-3.9.8-2.6.6-5.2.6-7.8,0-1.7,0-3.4.2-3.1-2.3.9-.9-.4-2.3.8-3.1h0c1.3-.8,2,.1,2.3,1.1.8,2.5,2.6,2.5,4.7,2.2,2.4-.3,4.8-1.2,7.1.6Z" />
        <path class="cls-71"
          d="M63.9,73.1c0-2.6,0-5.2,0-7.8.9-.5,1.1.3,1.5.8,0,2.3,0,4.7,0,7-.3,0-.5,0-.8,0-.3,0-.5,0-.8,0Z" />
        <path class="cls-71"
          d="M63.9,77.8c-1.5-.4-4,1-4.3-1.1-.3-1.9,2.6-.9,3.6-2-.1,1.1.2,2.1.8,3.1Z" />
        <path class="cls-108" d="M49.1,82.5c2.6,0,5.2,0,7.8,0-2.6,1.2-5.2,1.2-7.8,0Z" />
        <path class="cls-108"
          d="M46.7,77c-.1,1.1.4,2.3-.8,3.1,0-.6-.2-1.2-.8-1.6,0-1,.5-1.5,1.6-1.6Z" />
        <path class="cls-101"
          d="M104.5,54.4c-1.2-1.3-1.5-3-1.6-4.7.7-.6,1.8,0,2.5-.8.7-1.1.2-2.1-.2-3.1.6-.9,1.5-.7,2.3-.8.6,0,1,.4,1.2.9.4,1,.5,2,.9,3,.2.5.3,1,.3,1.6,0,.5.1,1.1.2,1.6.1,1.3.8,2.6-.3,3.7-.5.8-1,1.6-1.6,2.3-1.2-1-.7-2.5-1.4-3.6-.8-.9-1.7-.2-2.5-.3Z" />
        <path class="cls-169"
          d="M102.1,43.5c-.2-2.8-.2-5.5,3.9-4.7,0,0,0,0,0,0,.5,1.7,1,3.4-.8,4.7-1-.3-2.1,1.4-3.1,0Z" />
        <path class="cls-148"
          d="M108.4,45.9c-.3-.3-.5-.5-.8-.8,0-1.2,0-2.3,0-3.5,0-1.2-.5-2.9,1.4-2.9,1.7,0,1.7,1.6,1.7,2.9,0,.4,0,.8,0,1.2,0,.1-.1.3-.2.4-.8.8-1.2,2-2.1,2.7Z" />
        <path class="cls-170"
          d="M106,49.8c-1.1,1.4-2.1.4-3.1,0,0-.3,0-.5,0-.8,0-1.1,0-2.3,1.6-2.3,1.6.5,1.5,1.9,1.6,3.1Z" />
        <path class="cls-195"
          d="M106,49.8c-.5-1-1.1-2.1-1.6-3.1.3-.3.5-.5.8-.8,2.4.9,1.8,2.4.8,3.9Z" />
        <path class="cls-113"
          d="M109.2,52.1c0-.5,0-1,0-1.6.7-.7.7-1.5.9-2.4.1-.3.3-.6.6-.9.3-.2.6-.1.9.1,0,.3,0,.5,0,.8,0,.8,0,1.6,0,2.3.5,2.5-.7,2.3-2.3,1.6Z" />
        <path class="cls-189" d="M105.2,43.5c1-1.4.8-3.1.8-4.7.8,1.7,2,3.5-.8,4.7Z" />
        <path class="cls-148"
          d="M111.5,47.4c-.3,0-.5,0-.8,0-1.4-1.6-1.2-3.1,0-4.7,0,0,0,0,0,0,1.4,1.4.5,3.1.8,4.7Z" />
        <path class="cls-183"
          d="M60,52.9c1,.3,2.1.5,3.1.8,1.8,2,.6,3.9-.2,5.8-.8.3-1.5.2-2.1-.4h0c-2.1-2.6-5-2.1-7.8-2.1-1.5,0-3,.8-4.5,0-.4-.3-.5-.6-.5-1,.2-.9.6-2,1.5-2,3.5-.4,6.8-2.2,10.5-1.1Z" />
        <path class="cls-175"
          d="M60,52.9c-3.5-.3-6.6,2.2-10.1,1.9-.5,0-1,1.3-1.6,2-1.8,1.3-3.5,1.4-5-.3-.3-.7-.2-1.4.3-2,2.7-.3,5-2,7.9-2.1,2.9,0,5.7-.9,8.5.5Z" />
        <path class="cls-191"
          d="M60.8,59.1h2.3c.8-1.5.2-3.8,2.4-4.7,1-.8,2.1,0,3.1,0,.7.3,1.3.8,1.6,1.6-2.1-.2-3.7.3-4.7,2.3-.7,1.8-.6,3.6,0,5.4,0,.8,0,1.6,0,2.3-.5-.3-1-.5-1.5-.8-.6-2.3-1.7-4.3-3.1-6.2Z" />
        <path class="cls-47"
          d="M43.6,54.4c0,.5,0,1,0,1.5-3.3,1.5-5.7,4.6-9.4,5.4.6-3.3,4.2-4.3,5.5-7,.3-.3.5-.5.8-.8,1.1,0,2.2.2,3.1.8Z" />
        <path class="cls-175"
          d="M65.5,54.4c-1,1.5-.8,3.5-2.4,4.7-1.4-1.8.8-3.6,0-5.4.9,0,1.8-.1,2.4.8Z" />
        <path class="cls-80"
          d="M46.7,38.1c.9,1.5.8,3.1.8,4.7-1.3,3.8-5.5,3.3-7.9,5.4-1.1-.7-3,2.2-3.7-.7.3,0,.5,0,.8,0q4-1.6,2.5-7.4c.8-2.1,2.5-2.9,4.5-3.4,1.4-.2,2.5.2,3.2,1.5Z" />
        <path class="cls-8"
          d="M119.3,91.8v.9c-.9.4-1.8.7-2.3,1.5-5.4,1.2-10.9,1.5-16.4,1.6-3.6.6-7.3.6-10.9,0-.5,0-1.1,0-1.6,0,6.4-3.8,13.4-3.1,20.4-3.1,1.4,0,3.3.8,3.8-1.5,1.2-.9,2.7.2,3.9-.8,1,0,2.1,0,3.1,0,0,.5,0,1,0,1.5Z" />
        <path class="cls-48"
          d="M116.2,90.3c-1.1,1.3-2.6.6-3.9.8-6.3,0-12.7,0-19,0-1.2,0-2.6.4-3.6-.8,8.8,0,17.7,0,26.5,0Z" />
        <path class="cls-163"
          d="M30.3,35c.9-1.9-.6-1.5-1.6-1.6-.6,0,0-2.6-1.5-.8,0-1.9-.5-3.6-2.4-4.7-.2-.2-.3-.4-.2-.7,0-.2.1-.3.2-.3,1.7-1,3.7-.9,5.5-1.3,1.2,1.9.9,4.4,2.4,6.2,0,.3,0,.5,0,.8-1,.5-.6,2.5-2.3,2.3Z" />
        <path class="cls-223"
          d="M30.3,25.6c-1.3,2.4-3.6,1.3-5.4,1.5-.8-1.4-.4-2.5.9-3.3,1.5-.8,2.7-.4,3.8.9l.8.8Z" />
        <path class="cls-59"
          d="M29.6,24.8c-2.5-1-4.5-1-4.7,2.4,0,.3,0,.5,0,.8-1.3-1.1-.6-2.6-.8-3.9.7-1.9,2.1-2.3,3.9-1.6.4.8,1.7,1.1,1.6,2.3Z" />
        <path class="cls-125"
          d="M28,22.5c-1.5,0-2.9.4-3.9,1.6-.7-.3-1.3-.8-1.5-1.6,1.7,0,3.5-.1,3.9-2.3.3,0,.5,0,.8,0,.3.8.5,1.5.8,2.3Z" />
        <path class="cls-129"
          d="M34.2,61.4c2.9-2.1,5.2-5.5,9.4-5.4,1.4,1.4,3.1.5,4.7.8,0,0,0,0,0,0,.4,2.6-.3,4.2-3.3,3-2.3-.9-3.6.8-5,2.1-1.4,1.3,0,1.9.8,2.7,1.7,1.8,3,3.7.9,6-.9.9,0,1.6.3,2.4.6,1.3,1.5,2.5.9,4-.2.3-.4.9-.7.9-3.6,0-7.3-5.2-5.7-8.4,1.4-2.8,1.8-4.5-2.2-4.6-.5,0-1-1.3-1.6-2,.3-.5.5-1,.8-1.6.3,0,.5,0,.8,0Z" />
        <path class="cls-108"
          d="M31.9,66.1c1.5,0,3.1-.2,4.3,1.5-4.8,1.6-.3,5.4-2,7.8-2.4-2.7-3.2-5.8-2.3-9.4Z" />
        <path class="cls-208"
          d="M12.4,44.3c1.9,1.4,1.7,3.9,2.5,5.7.8,1.9-.7,2.7-2.5,1.3-.4-2.3-1.7-4.6,0-7h0Z" />
        <path class="cls-210"
          d="M14,58.3c-.5-.5-1-1-1.6-1.5,0-.5,0-1,0-1.6,0,0,0,0,0,0,1.8-1,2.3.7,3.1,1.6.9,1.9-.5,1.5-1.5,1.6Z" />
        <path class="cls-130" d="M13.2,42.7c1.9.2,2.9,1.3,3.1,3.1-1.3-.7-2.4-1.8-3.1-3.1Z" />
        <path class="cls-208" d="M15.5,56.8c-1.1-.5-1.7-1.7-3.1-1.6,2.1-1.6,2.7-.2,3.1,1.6Z" />
        <path class="cls-155"
          d="M109.2,52.1c1.1,0,2.3,0,2.3-1.6,1.5,1.6.5,3.6.8,5.4-.8.1-1.5,3-2.3,0-.3-1.3-.5-2.6-.8-3.9Z" />
        <path class="cls-120"
          d="M104.5,54.4c.8-1.2,1.6-2.3,3.1-.8.5,2,.7,3.8-2.4,3.1-.9-.6-.7-1.5-.8-2.3Z" />
        <path class="cls-154"
          d="M105.2,56.8c2-.1,2.4-1.5,2.4-3.1,1.4,1.4.5,3.1.8,4.7-1.8,1-2.9.6-3.1-1.6Z" />
        <path class="cls-197"
          d="M55.2,28.8c-.6-4.1,2-6.6,5.6-5.5,2.1,1.9,3,5.7,7.1,4.6.3.3.5.5.8.8-.6,0-1.3.2-1.6.8-1,1.4-2.4,2.3-4,2.8-.8.1-1.4-.2-2-.8-1.1-1.3-2.1-2.8-4.1-1.3-.9-.1-1.3-.7-1.7-1.4Z" />
        <path class="cls-103"
          d="M63.1,31.8c1.2-.9,2.3-2.1,3.9-2.3.5.8,1,1.6,1.6,2.4-.5,1.5-2.2,2.2-2.3,3.9-.2,2.1-1.5.5-2.3.8-.1-.2-.2-.4-.2-.6.2-1.4-.6-2.7-.7-4.1Z" />
        <path class="cls-102"
          d="M63.1,31.8c1.8,1.1,2.4,2.4.7,4.1-1.3-1.3-2.6-2.6-3.9-3.9,0-1.4.6-1.5,1.7-.9.4.6.9.7,1.6.7Z" />
        <path class="cls-193"
          d="M61.5,31.1c-.7,0-1.3.2-1.7.9-1-.6-1.9-1.2-2.9-1.8,0-.9-.2-2.2,1-2.1,1.6.2,3.2,1,3.5,3Z" />
        <path class="cls-160"
          d="M13.2,40.4c-.5-.8-1-1.5-1.5-2.3,0-1-.3-2.2,1-2.6.7-.2,1,.5,1.3,1.1.9,1.5,1.1,2.9-.8,3.8Z" />
        <path class="cls-7"
          d="M140.3,90.3c-.4,1.1-1.7,1.7-1.5,3.1-6,1.5-12,1.9-18,0-.2-2.5,1.6-3,3.5-3.1,3,0,6,0,9,0-.1,2-1.7,1-2.6,1.1-1.9.1-3.8.2-5.7,0-.5,0,0,.9-.1.4,0,0,0-.1.3-.1,3.3-.2,6.6,0,9.9-.3.4,0,.9.2,1.3.4-.3-.4-1.2-.5-.8-1.3,1.6,0,3.1,0,4.7,0Z" />
        <path class="cls-7"
          d="M120.8,93.4c6,0,12,0,18,0,.3.3.5.5.8.8-.8,0-1.5,0-2.3,0-5.5,1.2-10.9,1.2-16.4,0,0,0,0,0,0,0,0-.2,0-.5,0-.7Z" />
        <path class="cls-7"
          d="M135.7,90.3c.5.4,1,.7,1.8,1.3h-14c3.5-1.4,6.9.5,9.8-1.3.8,0,1.6,0,2.3,0Z" />
        <path class="cls-58"
          d="M85,59.9c-1.1-.1-2.2.2-3.1.8-.6-.3-.8-.9-.8-1.6,1.8-2.3,2.9-1,3.9.8Z" />
        <path class="cls-200"
          d="M25.7,109.7c.3-.3.5-.5.8-.8.9-.9.8-2.2,1.6-3.1,0-.3,0-.5,0-.8,1.4-1.3,2.7-2.8,4.3-3.8,1.4-.8,3.4-2.7,4.3.6-1.7,3-3.5,6.1-6.5,8-1.5,1-3,1.7-4.4-.2Z" />
        <path class="cls-195"
          d="M25.6,105.8c-.5.5-1,1.1-1.5,1.6-2.3.1-4.1-.2-3.9-3.1.6-.9.8-2.5,2.2-2.1,1.7.5,3,1.7,3.3,3.7Z" />
        <path class="cls-116"
          d="M20.2,104.2c.6,1.9,2.4,2.3,3.9,3.1,0,.3,0,.5,0,.8-2.8.2-4.7-.6-4.7-3.9.3,0,.5,0,.8,0Z" />
        <path class="cls-180" d="M28,105.8c0,1.3-.1,2.5-1.6,3.1,0-.5,0-1,0-1.6.3-.7.8-1.3,1.6-1.6Z" />
        <path class="cls-118"
          d="M44.4,100.4c.9,3.6-1.4,6.4-2.6,9.5-.2.5-1,1.3-1.3,1.2-3.4-.5-6.1,1.8-9.4,1.8-.9-.5,0-1,0-1.6.4-1.2.5-2.7,2.3-2.6,2.8.7,6.9-1.3,7.3-3.8.3-2.4-2-1.2-3-1.9-.1-.1-.3-.2-.4-.3,1.5-3.2,4.5-2.2,7.1-2.3Z" />
        <path class="cls-166"
          d="M33.5,108.9c-.8.8-1.6,1.6-2.3,2.3-1.8-.8-3.9,1-5.5-.8,0-.3,0-.5,0-.8,3.5,1.9,4.8-1.3,6.5-3,1.5-1.5,2.3-3.8,4.4-4.8.3.3.5.5.8.8,0,0,0,0,0,0-.2,2.8-1.4,4.9-3.9,6.2Z" />
        <path class="cls-117"
          d="M74,16.3c.3.8.8,1.3,1.6,1.6-1.3,2.1-3.3,2.3-5.5,2.4,0-.5,0-1.1,0-1.6.5-1.6.9-3.2,3.1-2.3.3,0,.5,0,.8,0Z" />
        <path class="cls-90" d="M67,112.1c.8-1,1.9-1.4,3.1-1.6-.6,1.4-1.8,1.6-3.1,1.6Z" />
        <path class="cls-54" d="M89.7,95.7c3.6,0,7.3,0,10.9,0,0,.2,0,.5,0,.7-3.6-.3-7.3.8-10.8-.7Z" />
        <path class="cls-17" d="M117,94.1c-.2-1.9.5-2.6,2.3-1.5,0,.5,0,1,0,1.5-.8,0-1.5,0-2.3,0Z" />
        <path class="cls-34"
          d="M66.2,35.7c-1.8-2.9,1-2.9,2.3-3.9,1.1.8.7,2,.8,3.1,0,.3,0,.5,0,.8-.8.7-1.6.6-2.3,0-.3,0-.5,0-.8,0Z" />
        <path class="cls-57"
          d="M73.3,37.3c-.2.3-.5.5-.7.8-2.5.2-2.5-1.4-2.4-3.2,2.5-1.1,2.6.9,3.2,2.4Z" />
        <path class="cls-177" d="M67,35.7c.8,0,1.6,0,2.3,0-.8,2.5-1.6,1.2-2.3,0Z" />
        <path class="cls-74" d="M64.8,15c1,1.2.5,2,.6,3.1-1.2-1.1-.5-1.9-.6-3.1Z" />
        <path class="cls-201"
          d="M73.3,16.3c-1.7,0-1.8,2-3.1,2.3-1.4-.6-1.7-2-2.3-3.1,1.8.3,3.8-.7,5.5.8Z" />
        <path class="cls-45"
          d="M120.9,94.2c5.5,0,10.9,0,16.4,0,0,.3,0,.5,0,.8-5.4,1.6-10.9.4-16.3.7,0-.5,0-1,0-1.5Z" />
        <path class="cls-192"
          d="M27.2,32.6c.4-.3.9-1,1.1-.9.7.3.3,1.1.4,1.6-.3.3-.5.5-.8.8-.6-.3-.7-.9-.7-1.6Z" />
        <path class="cls-29"
          d="M39.7,40.4c.1.2.2.5.4.7,2.7,4.6,2.3,5.3-3.4,6.3.8-.6,1.6-1.2,2.8-2.1-3.1-.4-3.5-2.8-4.3-4.9,2.5-2.7,3.1-2.7,4.6,0Z" />
        <path class="cls-138"
          d="M39.7,40.4c-1.5-2.5-3.1-.6-4.6,0-.9-.5,0-1.1,0-1.6,1.1-.7,2.1-1.5,3.2-2.2.2,1.2.7,1.7,1.8.8.9-.7,1.6-1.7,2.9-1.7.4.4,1.3.7.8,1.5-1.5.8-3.3,1.3-3.9,3.1Z" />
        <path class="cls-206"
          d="M47.5,32.6c1.3-.3,2.6-.5,3.9-.8,0,3-1.7,4.5-4.6,4.7-.9-.2-1.9-.2-1.6-1.6.8-.8,1.6-1.6,2.3-2.3Z" />
        <path class="cls-162"
          d="M45.2,35c.5.5,1.1,1,1.6,1.6,0,.5,0,1,0,1.5-1-.5-2-.9-3.1-.8-.3-.5-.5-1-.8-1.5.8-.3,1.6-.5,2.3-.8Z" />
        <path class="cls-123" d="M47.5,21.7c1.6,1,2.3,2.2.8,3.8-.3-1.3-.5-2.6-.8-3.8Z" />
        <path class="cls-18"
          d="M142.7,72.4c0,.5,0,1,0,1.6-3.4-1.7-7.5-2.6-8.6-7,1.8.5,3.7,1,5.5,1.5.3,0,.5,0,.8,0-.2,1.9.8,3.1,2.3,3.9Z" />
        <path class="cls-182" d="M125.5,56.8c-1.1,0-2.3,0-2.3-1.6.8.5,3.2-1.4,2.3,1.6Z" />
        <path class="cls-186" d="M97.4,56.8c-1.3-.7-2.3-1.5-2.3-3.1,1.3.7,2.3,1.5,2.3,3.1Z" />
        <path class="cls-184"
          d="M73.3,72.3c-1.4,1.9-3.4,2.9-5.5,3.9-1.4-.6-2.7-1.3-2.3-3.1,1.4-1.4.6-3.2.7-4.8.1-2,0-4.1.2-6.1.2-1.2.6-2.8,2.2-2.8,1.3,0,1.9,1.1,2.2,2.3.7,2.5,1.7,4.8,1.6,7.5.6.7,1.2,1.3.8,2.3,0,.3,0,.5,0,.8Z" />
        <path class="cls-71" d="M65.4,63.8c-1.2-1.8-1.2-3.6,0-5.4,0,1.8,0,3.6,0,5.4Z" />
        <path class="cls-131" d="M73.3,71.6c-.3-.8-.5-1.6-.8-2.3,1.7.3,2.1,1.1.8,2.3Z" />
        <path class="cls-184"
          d="M42.8,77c-1.3-1.5-1-4-3.2-5-1-.4,0-1.2.5-1.7,2.4-2,2.3-4.4-.8-5.5-2.8-1-1.6-2.7-.6-3.2,2.3-1,3.3-5.5,7.3-2.4,1.8,1.4,1.3-1.8,2.3-2.5,3.8-.7,7.6-1.3,11.5-.1,1.8.5,1.6,1.2,1,2.4-.6,0-1.2.2-1.6.8-1.1,1-.4,2.1,0,3.1,3.8-.1,3.3,2.7,3,4.8-.2,1.8,1.7,5.1-2.6,5-.7,0-1.3.7-2,1.1-.5,2.2-2.2,2.3-4,2.7-3.1.6-6.1-1.3-9.3-.3-.5.3-1,.5-1.6.8Z" />
        <path class="cls-153"
          d="M44.4,76.2c.7-1.6,1.9-1,3.1-1,3.4,0,7.1,1.6,10.1-1.3,0,3.3,1.3,5.2,4.9,4.8.3,1.7-1.6,1.2-1.8,2.2-2.7,0-5.4.2-8,.7-2.2.4-4.9.6-4.5-3.1,0-.9-.6-1.3-1.5-1.4-.6-.9-1.5-.7-2.3-.8Z" />
        <path class="cls-128"
          d="M59.2,63c-.5-.7-1.1-1.3-1.6-2-.4-.5-.8-1.1-.1-1.5.4-.2,1.1.2,1.7.4.8,1,0,2.1,0,3.1Z" />
        <path class="cls-113"
          d="M110.7,42.8c0,1.6,0,3.1,0,4.7,0,0,0,0,0,0-.6.4-.8,1.3-1.6,1.6-1.1-.8-.7-2-.8-3.1,0-1.7.3-3,2.3-3.1Z" />
        <path class="cls-112" d="M109.1,49c0-1,.5-1.6,1.6-1.6,0,1.3-.1,2.5-1.6,3.1,0-.5,0-1,0-1.5Z" />
        <path class="cls-120"
          d="M33.5,108.9c1.3-2.1,2.6-4.2,3.9-6.2.5-.1,1-.3,1.5-.3,1.2,0,2.9-.2,3.5,1,.6,1.2-.7,2.4-1.6,3.3-1.1,1.1-2.1,2.4-3.4,3.2-1.4.9-3.2,1.6-4-.9Z" />
        <path class="cls-44"
          d="M51.4,67.1c-.1,1.3-.8,2.5-2.2,2.6-1.4,0-2.2-1.1-2.4-2.5-.2-1.6,1-2.3,2.4-2.3,1.2,0,2.2.7,2.2,2.2Z" />
      </g>
    </g>
  </g>
</svg>